<?xml version="1.0" encoding="UTF-8"?>
<!DOCTYPE svg PUBLIC "-//W3C//DTD SVG 1.1//EN" "http://www.w3.org/Graphics/SVG/1.1/DTD/svg11.dtd">
<svg xmlns="http://www.w3.org/2000/svg" version="1.1" width="1916px" height="965px" style="shape-rendering:geometricPrecision; text-rendering:geometricPrecision; image-rendering:optimizeQuality; fill-rule:evenodd; clip-rule:evenodd" xmlns:xlink="http://www.w3.org/1999/xlink">
<g><path style="opacity:1" fill="#3d67fe" d="M -0.5,0.5 C 74.8333,0.5 150.167,0.5 225.5,0.5C 225.5,21.8333 225.5,43.1667 225.5,64.5C 225.5,95.1667 225.5,125.833 225.5,156.5C 150.167,156.5 74.8333,156.5 -0.5,156.5C -0.5,104.5 -0.5,52.5 -0.5,0.5 Z"/></g>
<g><path style="opacity:1" fill="#fbfbfb" d="M -0.5,0.5 C -0.5,0.166667 -0.5,-0.166667 -0.5,-0.5C 638.167,-0.5 1276.83,-0.5 1915.5,-0.5C 1915.5,21.1667 1915.5,42.8333 1915.5,64.5C 1352.17,64.5 788.833,64.5 225.5,64.5C 225.5,43.1667 225.5,21.8333 225.5,0.5C 150.167,0.5 74.8333,0.5 -0.5,0.5 Z"/></g>
<g><path style="opacity:1" fill="#9ba0aa" d="M 1865.5,8.5 C 1879.82,7.23827 1889.65,13.2383 1895,26.5C 1896.82,41.3694 1890.65,51.2028 1876.5,56C 1862.04,57.5196 1852.54,51.3529 1848,37.5C 1846.67,23.4931 1852.5,13.8265 1865.5,8.5 Z"/></g>
<g><path style="opacity:1" fill="#999896" d="M 1887.5,43.5 C 1886.16,39.6459 1885.33,35.6459 1885,31.5C 1882.49,29.8037 1880.99,27.4703 1880.5,24.5C 1875.55,23.3857 1870.55,23.219 1865.5,24C 1862.21,25.8013 1860.38,28.6346 1860,32.5C 1856.56,35.1188 1855.73,38.4522 1857.5,42.5C 1856.76,43.1818 1856.09,43.8485 1855.5,44.5C 1849.36,34.0887 1850.7,24.5887 1859.5,16C 1870.71,9.90334 1880.37,11.7367 1888.5,21.5C 1892.57,29.1373 1892.24,36.4706 1887.5,43.5 Z"/></g>
<g><path style="opacity:1" fill="#eff3ff" d="M 30.5,32.5 C 32.288,32.2148 33.9547,32.5481 35.5,33.5C 37.9083,39.7239 39.9083,46.0572 41.5,52.5C 38.0504,53.2436 36.3838,51.9103 36.5,48.5C 33.0844,47.8941 30.4178,48.8941 28.5,51.5C 27.3112,52.4287 25.9778,52.762 24.5,52.5C 25.9205,45.6592 27.9205,38.9925 30.5,32.5 Z"/></g>
<g><path style="opacity:1" fill="#67c3ff" d="M 54.5,33.5 C 51.5,33.5 48.5,33.5 45.5,33.5C 45.5,39.8333 45.5,46.1667 45.5,52.5C 44.5093,46.021 44.176,39.3543 44.5,32.5C 48.0419,32.1872 51.3752,32.5206 54.5,33.5 Z"/></g>
<g><path style="opacity:1" fill="#f7f9ff" d="M 54.5,33.5 C 60.8581,35.548 63.0248,39.8814 61,46.5C 59.8333,49 58,50.8333 55.5,52C 52.1832,52.4983 48.8499,52.665 45.5,52.5C 45.5,46.1667 45.5,39.8333 45.5,33.5C 48.5,33.5 51.5,33.5 54.5,33.5 Z"/></g>
<g><path style="opacity:1" fill="#f0f5ff" d="M 65.5,32.5 C 67.604,32.2011 69.604,32.5344 71.5,33.5C 72.7257,36.9518 74.2257,40.2852 76,43.5C 78.0719,40.0288 79.5719,36.3621 80.5,32.5C 82.5,32.5 84.5,32.5 86.5,32.5C 86.5,39.1667 86.5,45.8333 86.5,52.5C 85.1667,52.5 83.8333,52.5 82.5,52.5C 83.6118,38.998 82.1118,37.998 78,49.5C 76.6667,50.8333 75.3333,50.8333 74,49.5C 69.8882,37.998 68.3882,38.998 69.5,52.5C 68.1667,52.5 66.8333,52.5 65.5,52.5C 65.5,45.8333 65.5,39.1667 65.5,32.5 Z"/></g>
<g><path style="opacity:1" fill="#edf3ff" d="M 91.5,32.5 C 92.8333,32.5 94.1667,32.5 95.5,32.5C 95.5,39.1667 95.5,45.8333 95.5,52.5C 94.1667,52.5 92.8333,52.5 91.5,52.5C 91.5,45.8333 91.5,39.1667 91.5,32.5 Z"/></g>
<g><path style="opacity:1" fill="#99d3ff" d="M 105.5,33.5 C 104.167,33.5 102.833,33.5 101.5,33.5C 101.5,39.8333 101.5,46.1667 101.5,52.5C 100.509,46.021 100.176,39.3543 100.5,32.5C 102.415,32.2155 104.081,32.5489 105.5,33.5 Z"/></g>
<g><path style="opacity:1" fill="#f4f2ff" d="M 101.5,52.5 C 101.5,46.1667 101.5,39.8333 101.5,33.5C 102.833,33.5 104.167,33.5 105.5,33.5C 108.239,37.3037 110.739,41.3037 113,45.5C 113.499,41.1794 113.666,36.8461 113.5,32.5C 114.833,32.5 116.167,32.5 117.5,32.5C 117.5,39.1667 117.5,45.8333 117.5,52.5C 115.712,52.7852 114.045,52.4519 112.5,51.5C 110.582,47.9961 108.416,44.6628 106,41.5C 105.501,45.1516 105.335,48.8183 105.5,52.5C 104.167,52.5 102.833,52.5 101.5,52.5 Z"/></g>
<g><path style="opacity:1" fill="#c1abff" d="M 49.5,36.5 C 49.5,40.5 49.5,44.5 49.5,48.5C 50.8333,48.5 52.1667,48.5 53.5,48.5C 52.0813,49.4511 50.4147,49.7845 48.5,49.5C 48.1818,44.9677 48.5151,40.6344 49.5,36.5 Z"/></g>
<g><path style="opacity:1" fill="#3d68ff" d="M 49.5,36.5 C 54.3135,36.0688 56.9802,38.2355 57.5,43C 57.0057,45.5055 55.6723,47.3388 53.5,48.5C 52.1667,48.5 50.8333,48.5 49.5,48.5C 49.5,44.5 49.5,40.5 49.5,36.5 Z"/></g>
<g><path style="opacity:1" fill="#2c2117" d="M 1887.5,43.5 C 1885.56,47.1027 1882.56,49.1027 1878.5,49.5C 1878.54,46.1194 1878.21,42.7861 1877.5,39.5C 1878.9,38.1806 1879.56,36.5139 1879.5,34.5C 1878.8,32.4649 1878.13,30.4649 1877.5,28.5C 1876.17,28.5 1874.83,28.5 1873.5,28.5C 1873.33,27.1779 1873.66,26.0113 1874.5,25C 1871.53,24.1048 1868.87,24.6048 1866.5,26.5C 1867.38,27.2508 1868.38,27.7508 1869.5,28C 1867.34,30.727 1865.01,33.3936 1862.5,36C 1863.37,37.045 1864.37,37.8783 1865.5,38.5C 1865.14,41.6249 1864.3,44.6249 1863,47.5C 1861.67,46.1667 1860.33,46.1667 1859,47.5C 1857.96,46.2899 1856.79,45.2899 1855.5,44.5C 1856.09,43.8485 1856.76,43.1818 1857.5,42.5C 1855.73,38.4522 1856.56,35.1188 1860,32.5C 1860.38,28.6346 1862.21,25.8013 1865.5,24C 1870.55,23.219 1875.55,23.3857 1880.5,24.5C 1880.99,27.4703 1882.49,29.8037 1885,31.5C 1885.33,35.6459 1886.16,39.6459 1887.5,43.5 Z"/></g>
<g><path style="opacity:1" fill="#a57f71" d="M 1877.5,39.5 C 1873.64,39.4609 1869.64,39.1276 1865.5,38.5C 1864.37,37.8783 1863.37,37.045 1862.5,36C 1865.01,33.3936 1867.34,30.727 1869.5,28C 1868.38,27.7508 1867.38,27.2508 1866.5,26.5C 1868.87,24.6048 1871.53,24.1048 1874.5,25C 1873.66,26.0113 1873.33,27.1779 1873.5,28.5C 1874.83,28.5 1876.17,28.5 1877.5,28.5C 1878.13,30.4649 1878.8,32.4649 1879.5,34.5C 1879.56,36.5139 1878.9,38.1806 1877.5,39.5 Z"/></g>
<g><path style="opacity:1" fill="#556bff" d="M 32.5,38.5 C 33.5783,40.5394 34.5783,42.706 35.5,45C 33.8333,45.6667 32.1667,45.6667 30.5,45C 31.6687,42.9935 32.3354,40.8268 32.5,38.5 Z"/></g>
<g><path style="opacity:1" fill="#b8bbbf" d="M 225.5,64.5 C 788.833,64.5 1352.17,64.5 1915.5,64.5C 1915.5,64.8333 1915.5,65.1667 1915.5,65.5C 1353.17,65.5 790.833,65.5 228.5,65.5C 228.5,364.833 228.5,664.167 228.5,963.5C 790.833,963.5 1353.17,963.5 1915.5,963.5C 1915.5,963.833 1915.5,964.167 1915.5,964.5C 1276.83,964.5 638.167,964.5 -0.5,964.5C -0.5,964.167 -0.5,963.833 -0.5,963.5C 74.8333,963.5 150.167,963.5 225.5,963.5C 225.5,944.833 225.5,926.167 225.5,907.5C 225.5,675.833 225.5,444.167 225.5,212.5C 225.5,193.833 225.5,175.167 225.5,156.5C 225.5,125.833 225.5,95.1667 225.5,64.5 Z"/></g>
<g><path style="opacity:1" fill="#f2f3f5" d="M 1915.5,65.5 C 1915.5,364.833 1915.5,664.167 1915.5,963.5C 1353.17,963.5 790.833,963.5 228.5,963.5C 228.5,664.167 228.5,364.833 228.5,65.5C 790.833,65.5 1353.17,65.5 1915.5,65.5 Z"/></g>
<g><path style="opacity:1" fill="#fdfdff" d="M 200.5,117.5 C 199.118,118.801 197.452,119.634 195.5,120C 139.5,120.667 83.5,120.667 27.5,120C 26.6266,118.955 25.6266,118.122 24.5,117.5C 23.56,105.204 23.2266,92.8706 23.5,80.5C 80.8343,80.3333 138.168,80.5 195.5,81C 198.232,81.3981 200.065,82.8981 201,85.5C 201.763,96.2004 201.596,106.867 200.5,117.5 Z"/></g>
<g><path style="opacity:1" fill="#3e69ff" d="M 66.5,94.5 C 66.5,96.1667 66.5,97.8333 66.5,99.5C 68.5,99.5 70.5,99.5 72.5,99.5C 72.6716,100.492 72.3382,101.158 71.5,101.5C 69.8333,101.5 68.1667,101.5 66.5,101.5C 66.5,103.167 66.5,104.833 66.5,106.5C 65.8333,107.833 65.1667,107.833 64.5,106.5C 64.5,104.833 64.5,103.167 64.5,101.5C 62.5,101.5 60.5,101.5 58.5,101.5C 58.3284,100.508 58.6618,99.8417 59.5,99.5C 61.1667,99.5 62.8333,99.5 64.5,99.5C 64.5,97.8333 64.5,96.1667 64.5,94.5C 65.1667,93.1667 65.8333,93.1667 66.5,94.5 Z"/></g>
<g><path style="opacity:1" fill="#6379fe" d="M 132.5,94.5 C 133.787,95.8714 134.453,97.7047 134.5,100C 134.167,101.833 133.833,103.667 133.5,105.5C 132.511,101.893 132.177,98.226 132.5,94.5 Z"/></g>
<g><path style="opacity:1" fill="#787cff" d="M 86.5,95.5 C 89.091,96.2543 90.9243,97.921 92,100.5C 92.2022,98.7444 92.7022,97.0777 93.5,95.5C 94.8333,98.8333 94.8333,102.167 93.5,105.5C 91.7684,103.717 90.2684,101.717 89,99.5C 88.8078,101.577 88.3078,103.577 87.5,105.5C 86.513,102.232 86.1796,98.8984 86.5,95.5 Z"/></g>
<g><path style="opacity:1" fill="#767eff" d="M 124.5,94.5 C 127.061,94.4469 129.061,95.4469 130.5,97.5C 130.167,97.8333 129.833,98.1667 129.5,98.5C 127.608,95.9557 125.775,95.9557 124,98.5C 123.28,100.112 123.446,101.612 124.5,103C 126.557,103.305 128.557,103.305 130.5,103C 123.89,107.411 121.057,105.577 122,97.5C 123.045,96.6266 123.878,95.6266 124.5,94.5 Z"/></g>
<g><path style="opacity:1" fill="#7c7fff" d="M 137.5,94.5 C 139.337,94.6395 139.67,95.3061 138.5,96.5C 137.702,96.0431 137.369,95.3764 137.5,94.5 Z"/></g>
<g><path style="opacity:1" fill="#6f7eff" d="M 98.5,97.5 C 102.138,96.7366 103.638,98.0699 103,101.5C 102.275,99.842 101.108,99.342 99.5,100C 100.167,100.333 100.833,100.667 101.5,101C 99.5946,101.826 99.2612,102.993 100.5,104.5C 101.451,103.674 102.451,103.508 103.5,104C 101.798,105.718 99.9645,105.885 98,104.5C 97.2967,102.071 97.4634,99.7375 98.5,97.5 Z"/></g>
<g><path style="opacity:1" fill="#6f7eff" d="M 143.5,97.5 C 147.138,96.7366 148.638,98.0699 148,101.5C 147.275,99.842 146.108,99.342 144.5,100C 145.167,100.333 145.833,100.667 146.5,101C 144.595,101.826 144.261,102.993 145.5,104.5C 146.451,103.674 147.451,103.508 148.5,104C 146.798,105.718 144.965,105.885 143,104.5C 142.297,102.071 142.463,99.7375 143.5,97.5 Z"/></g>
<g><path style="opacity:1" fill="#6876ff" d="M 151.5,97.5 C 153.641,97.7493 155.807,98.0826 158,98.5C 158.814,100.902 158.647,103.235 157.5,105.5C 156.534,103.604 156.201,101.604 156.5,99.5C 155.5,99.5 154.5,99.5 153.5,99.5C 153.799,101.604 153.466,103.604 152.5,105.5C 151.52,102.914 151.187,100.247 151.5,97.5 Z"/></g>
<g><path style="opacity:1" fill="#6772ff" d="M 161.5,95.5 C 162.931,96.0819 164.264,96.9152 165.5,98C 162.833,100.333 162.833,102.667 165.5,105C 164.216,105.684 163.049,105.517 162,104.5C 161.122,101.356 160.955,98.3556 161.5,95.5 Z"/></g>
<g><path style="opacity:1" fill="#35160c" d="M 304.5,97.5 C 306.22,99.6581 307.053,102.325 307,105.5C 310,102.833 313,102.833 316,105.5C 316.155,121.459 315.321,121.459 313.5,105.5C 311.249,104.135 309.249,104.469 307.5,106.5C 306.833,110.167 306.167,113.833 305.5,117.5C 304.503,110.866 304.17,104.2 304.5,97.5 Z"/></g>
<g><path style="opacity:1" fill="#2f1820" d="M 322.5,97.5 C 324.062,99.3717 325.062,101.705 325.5,104.5C 333.995,102.666 336.995,106 334.5,114.5C 331.58,117.923 328.413,118.256 325,115.5C 324.692,116.308 324.192,116.975 323.5,117.5C 322.503,110.866 322.17,104.2 322.5,97.5 Z"/></g>
<g><path style="opacity:1" fill="#9bb0ff" d="M 64.5,94.5 C 64.5,96.1667 64.5,97.8333 64.5,99.5C 62.8333,99.5 61.1667,99.5 59.5,99.5C 60.5676,98.5655 61.901,98.2322 63.5,98.5C 63.2322,96.901 63.5655,95.5676 64.5,94.5 Z"/></g>
<g><path style="opacity:1" fill="#9eb2ff" d="M 66.5,94.5 C 67.4345,95.5676 67.7678,96.901 67.5,98.5C 69.4147,98.2155 71.0813,98.5489 72.5,99.5C 70.5,99.5 68.5,99.5 66.5,99.5C 66.5,97.8333 66.5,96.1667 66.5,94.5 Z"/></g>
<g><path style="opacity:1" fill="#7371ff" d="M 137.5,97.5 C 138.748,98.3339 139.415,99.6672 139.5,101.5C 139.167,102.833 138.833,104.167 138.5,105.5C 137.52,102.914 137.187,100.247 137.5,97.5 Z"/></g>
<g><path style="opacity:1" fill="#311e1f" d="M 252.5,98.5 C 258.291,97.4888 263.124,99.1555 267,103.5C 268.324,114.342 263.49,119.008 252.5,117.5C 252.5,111.167 252.5,104.833 252.5,98.5 Z"/></g>
<g><path style="opacity:1" fill="#e7eaed" d="M 254.5,100.5 C 262.885,99.7159 266.051,103.383 264,111.5C 263.535,112.931 262.701,114.097 261.5,115C 259.19,115.497 256.857,115.663 254.5,115.5C 254.5,110.5 254.5,105.5 254.5,100.5 Z"/></g>
<g><path style="opacity:1" fill="#9aafff" d="M 58.5,101.5 C 60.5,101.5 62.5,101.5 64.5,101.5C 64.5,103.167 64.5,104.833 64.5,106.5C 63.5655,105.432 63.2322,104.099 63.5,102.5C 61.5853,102.784 59.9187,102.451 58.5,101.5 Z"/></g>
<g><path style="opacity:1" fill="#9bb0ff" d="M 71.5,101.5 C 70.4324,102.434 69.099,102.768 67.5,102.5C 67.7678,104.099 67.4345,105.432 66.5,106.5C 66.5,104.833 66.5,103.167 66.5,101.5C 68.1667,101.5 69.8333,101.5 71.5,101.5 Z"/></g>
<g><path style="opacity:1" fill="#6174ff" d="M 105.5,97.5 C 107.284,98.5738 108.451,100.24 109,102.5C 109.49,101.207 109.657,99.8734 109.5,98.5C 110.5,98.5 111.5,98.5 112.5,98.5C 112.343,99.8734 112.51,101.207 113,102.5C 113.98,100.941 114.813,99.2744 115.5,97.5C 115.941,100.228 115.275,102.894 113.5,105.5C 112.416,104.335 111.583,103.002 111,101.5C 110.417,103.002 109.584,104.335 108.5,105.5C 106.599,103.272 105.599,100.605 105.5,97.5 Z"/></g>
<g><path style="opacity:1" fill="#2a2530" d="M 279.5,109.5 C 279.5,110.167 279.167,110.5 278.5,110.5C 274.5,109.833 272.833,111.5 273.5,115.5C 275.527,115.662 277.527,115.495 279.5,115C 280.337,113.989 280.67,112.822 280.5,111.5C 281.742,109.389 281.742,107.389 280.5,105.5C 277.608,104.608 274.941,104.608 272.5,105.5C 272.709,104.914 273.043,104.414 273.5,104C 276.993,102.996 280.159,103.496 283,105.5C 283.499,109.486 283.666,113.486 283.5,117.5C 280.316,117.167 276.982,117 273.5,117C 270.833,114.667 270.833,112.333 273.5,110C 275.473,109.505 277.473,109.338 279.5,109.5 Z"/></g>
<g><path style="opacity:1" fill="#1e141d" d="M 289.5,103.5 C 292.187,103.336 294.854,103.503 297.5,104C 298.451,104.718 298.617,105.551 298,106.5C 295.147,103.682 292.647,103.848 290.5,107C 292.713,109.081 295.38,110.415 298.5,111C 299.935,113.267 299.602,115.267 297.5,117C 294.331,117.978 291.497,117.478 289,115.5C 288.485,113.061 288.985,112.895 290.5,115C 292.81,115.497 295.143,115.663 297.5,115.5C 297.67,114.178 297.337,113.011 296.5,112C 293.692,111.402 291.192,110.235 289,108.5C 288.36,106.735 288.527,105.068 289.5,103.5 Z"/></g>
<g><path style="opacity:1" fill="#2b1c20" d="M 341.5,103.5 C 351.269,102.486 354.269,106.652 350.5,116C 343.476,119.472 339.809,117.306 339.5,109.5C 339.363,107.159 340.03,105.159 341.5,103.5 Z"/></g>
<g><path style="opacity:1" fill="#2a1626" d="M 392.5,115.5 C 388.979,118.494 386.146,117.827 384,113.5C 382.106,108.015 383.773,104.349 389,102.5C 390.473,102.903 391.806,103.57 393,104.5C 393.186,102.1 393.686,99.7662 394.5,97.5C 395.833,104.167 395.833,110.833 394.5,117.5C 393.818,116.757 393.151,116.091 392.5,115.5 Z"/></g>
<g><path style="opacity:1" fill="#2d2b35" d="M 376.5,105.5 C 377.427,103.524 378.76,103.191 380.5,104.5C 379.311,105.429 377.978,105.762 376.5,105.5 Z"/></g>
<g><path style="opacity:1" fill="#e2dedd" d="M 327.5,104.5 C 332.85,105.184 334.684,108.184 333,113.5C 325.962,116.813 323.295,114.479 325,106.5C 325.995,105.934 326.828,105.267 327.5,104.5 Z"/></g>
<g><path style="opacity:1" fill="#e8e9e8" d="M 343.5,104.5 C 345.262,104.357 346.929,104.691 348.5,105.5C 349.787,108.709 349.787,111.875 348.5,115C 341.991,115.876 339.824,113.043 342,106.5C 342.717,105.956 343.217,105.289 343.5,104.5 Z"/></g>
<g><path style="opacity:1" fill="#e8e5e0" d="M 392.5,115.5 C 386.003,115.82 383.836,112.82 386,106.5C 388.333,103.833 390.667,103.833 393,106.5C 393.736,109.592 393.569,112.592 392.5,115.5 Z"/></g>
<g><path style="opacity:1" fill="#92724d" d="M 280.5,105.5 C 281.742,107.389 281.742,109.389 280.5,111.5C 279.508,111.672 278.842,111.338 278.5,110.5C 279.167,110.5 279.5,110.167 279.5,109.5C 280.434,108.432 280.768,107.099 280.5,105.5 Z"/></g>
<g><path style="opacity:1" fill="#382625" d="M 364.5,110.5 C 366.681,105.507 365.014,103.673 359.5,105C 357.208,107.024 356.541,106.69 357.5,104C 364.808,101.489 368.141,103.989 367.5,111.5C 367.167,113.5 366.833,115.5 366.5,117.5C 363.604,117.293 360.604,117.127 357.5,117C 354.833,114.667 354.833,112.333 357.5,110C 360.039,109.204 362.372,109.371 364.5,110.5 Z"/></g>
<g><path style="opacity:1" fill="#2c022b" d="M 376.5,105.5 C 375.894,109.459 375.227,113.459 374.5,117.5C 373.167,112.833 373.167,108.167 374.5,103.5C 375.182,104.243 375.849,104.909 376.5,105.5 Z"/></g>
<g><path style="opacity:1" fill="#dce2e7" d="M 278.5,110.5 C 278.842,111.338 279.508,111.672 280.5,111.5C 280.67,112.822 280.337,113.989 279.5,115C 277.527,115.495 275.527,115.662 273.5,115.5C 272.833,111.5 274.5,109.833 278.5,110.5 Z"/></g>
<g><path style="opacity:1" fill="#e2e1dd" d="M 364.5,110.5 C 365.728,112.01 365.728,113.51 364.5,115C 362.527,115.495 360.527,115.662 358.5,115.5C 358.062,111.092 360.062,109.425 364.5,110.5 Z"/></g>
<g><path style="opacity:1" fill="#3860ec" d="M 24.5,117.5 C 25.6266,118.122 26.6266,118.955 27.5,120C 83.5,120.667 139.5,120.667 195.5,120C 197.452,119.634 199.118,118.801 200.5,117.5C 200.358,120.617 199.024,123.117 196.5,125C 193.043,126.743 189.377,127.743 185.5,128C 137.167,128.667 88.8333,128.667 40.5,128C 34.9549,127.975 30.1215,126.142 26,122.5C 24.9914,120.975 24.4914,119.308 24.5,117.5 Z"/></g>
<g><path style="opacity:1" fill="#1a47ee" d="M -0.5,156.5 C 74.8333,156.5 150.167,156.5 225.5,156.5C 225.5,175.167 225.5,193.833 225.5,212.5C 150.167,212.5 74.8333,212.5 -0.5,212.5C -0.5,193.833 -0.5,175.167 -0.5,156.5 Z"/></g>
<g><path style="opacity:1" fill="#eef0fe" d="M 29.5,177.5 C 38.7241,177.378 42.3908,181.711 40.5,190.5C 35.1667,191.833 29.8333,191.833 24.5,190.5C 23.4383,187.897 23.2716,185.23 24,182.5C 25.7297,180.598 27.563,178.931 29.5,177.5 Z"/></g>
<g><path style="opacity:1" fill="#e0e3fb" d="M 93.5,178.5 C 94.5,178.5 95.5,178.5 96.5,178.5C 96.5,179.5 96.5,180.5 96.5,181.5C 101.213,181.468 102.713,183.801 101,188.5C 98.6194,189.435 96.1194,189.768 93.5,189.5C 93.5,185.833 93.5,182.167 93.5,178.5 Z"/></g>
<g><path style="opacity:1" fill="#8ac7fc" d="M 60.5,179.5 C 58.8333,179.5 57.1667,179.5 55.5,179.5C 55.5,182.833 55.5,186.167 55.5,189.5C 54.5184,186.038 54.185,182.371 54.5,178.5C 56.7354,178.205 58.7354,178.539 60.5,179.5 Z"/></g>
<g><path style="opacity:1" fill="#718bf4" d="M 33.5,181.5 C 31.663,181.361 31.3296,180.694 32.5,179.5C 33.2975,179.957 33.6309,180.624 33.5,181.5 Z"/></g>
<g><path style="opacity:1" fill="#eeeefc" d="M 60.5,179.5 C 65.0979,182.202 65.4312,185.369 61.5,189C 59.5273,189.495 57.5273,189.662 55.5,189.5C 55.5,186.167 55.5,182.833 55.5,179.5C 57.1667,179.5 58.8333,179.5 60.5,179.5 Z"/></g>
<g><path style="opacity:1" fill="#1d4df0" d="M 57.5,181.5 C 61.2739,181.484 62.2739,183.15 60.5,186.5C 59.675,187.386 58.675,187.719 57.5,187.5C 57.5,185.5 57.5,183.5 57.5,181.5 Z"/></g>
<g><path style="opacity:1" fill="#dcddfa" d="M 83.5,178.5 C 84.5,178.5 85.5,178.5 86.5,178.5C 86.5,179.5 86.5,180.5 86.5,181.5C 88.1439,181.286 89.6439,181.62 91,182.5C 91.4966,184.81 91.6633,187.143 91.5,189.5C 90.5,189.5 89.5,189.5 88.5,189.5C 87.8333,181.5 87.1667,181.5 86.5,189.5C 85.5,189.5 84.5,189.5 83.5,189.5C 83.5,185.833 83.5,182.167 83.5,178.5 Z"/></g>
<g><path style="opacity:1" fill="#2050f0" d="M 96.5,183.5 C 99.8606,184.203 100.194,185.537 97.5,187.5C 96.5713,186.311 96.238,184.978 96.5,183.5 Z"/></g>
<g><path style="opacity:1" fill="#dce2fc" d="M 104.5,181.5 C 109.881,181.452 111.547,183.952 109.5,189C 102.369,190.211 100.702,187.711 104.5,181.5 Z"/></g>
<g><path style="opacity:1" fill="#1d47ee" d="M 105.5,183.5 C 106.586,183.62 107.253,184.287 107.5,185.5C 107.167,186.167 106.833,186.833 106.5,187.5C 105.571,186.311 105.238,184.978 105.5,183.5 Z"/></g>
<g><path style="opacity:1" fill="#e3ebfd" d="M 113.5,181.5 C 115.467,181.261 117.301,181.594 119,182.5C 119.497,184.81 119.663,187.143 119.5,189.5C 116.881,189.768 114.381,189.435 112,188.5C 113.393,186.308 113.893,183.975 113.5,181.5 Z"/></g>
<g><path style="opacity:1" fill="#4660f0" d="M 33.5,181.5 C 34.6499,180.15 35.3166,180.316 35.5,182C 34.6777,184.434 34.3444,186.934 34.5,189.5C 33.0222,189.762 31.6888,189.429 30.5,188.5C 32.0818,186.423 33.0818,184.09 33.5,181.5 Z"/></g>
<g><path style="opacity:1" fill="#e2e8fc" d="M 66.5,181.5 C 68.4672,181.261 70.3005,181.594 72,182.5C 72.4966,184.81 72.6633,187.143 72.5,189.5C 70.1667,189.5 67.8333,189.5 65.5,189.5C 66.1831,186.665 66.5164,183.999 66.5,181.5 Z"/></g>
<g><path style="opacity:1" fill="#5355f1" d="M 67.5,187.5 C 68.2506,186.427 69.2506,186.26 70.5,187C 69.6477,188.728 68.6477,188.895 67.5,187.5 Z"/></g>
<g><path style="opacity:1" fill="#dbe3fc" d="M 132.5,178.5 C 133.5,178.5 134.5,178.5 135.5,178.5C 135.5,182.167 135.5,185.833 135.5,189.5C 133.143,189.663 130.81,189.497 128.5,189C 127.594,187.301 127.261,185.467 127.5,183.5C 126.5,183.5 125.5,183.5 124.5,183.5C 124.5,185.5 124.5,187.5 124.5,189.5C 123.5,189.5 122.5,189.5 121.5,189.5C 121.5,186.833 121.5,184.167 121.5,181.5C 125.315,182.105 128.982,182.105 132.5,181.5C 132.5,180.5 132.5,179.5 132.5,178.5 Z"/></g>
<g><path style="opacity:1" fill="#4d4fee" d="M 130.5,183.5 C 131.586,183.62 132.253,184.287 132.5,185.5C 131.696,187.957 130.696,187.957 129.5,185.5C 129.863,184.817 130.196,184.15 130.5,183.5 Z"/></g>
<g><path style="opacity:1" fill="#5574f2" d="M 25.5,186.5 C 27.337,186.639 27.6704,187.306 26.5,188.5C 25.7025,188.043 25.3691,187.376 25.5,186.5 Z"/></g>
<g><path style="opacity:1" fill="#5574f2" d="M 37.5,186.5 C 39.337,186.639 39.6704,187.306 38.5,188.5C 37.7025,188.043 37.3691,187.376 37.5,186.5 Z"/></g>
<g><path style="opacity:1" fill="#e0e3fc" d="M 75.5,181.5 C 77.4672,181.261 79.3005,181.594 81,182.5C 81.4561,183.744 80.9561,184.577 79.5,185C 81.5922,185.953 81.9255,187.286 80.5,189C 78.5594,189.743 76.7261,189.576 75,188.5C 74.5439,187.256 75.0439,186.423 76.5,186C 74.2177,184.916 73.8843,183.416 75.5,181.5 Z"/></g>
<g><path style="opacity:1" fill="#7582f5" d="M 114.5,186.5 C 117.797,186.329 118.131,186.995 115.5,188.5C 114.702,188.043 114.369,187.376 114.5,186.5 Z"/></g>
<g><path style="opacity:1" fill="#1e1e1e" d="M 249.5,203.5 C 250.833,203.5 252.167,203.5 253.5,203.5C 253.833,206.5 252.5,207.833 249.5,207.5C 249.5,206.167 249.5,204.833 249.5,203.5 Z"/></g>
<g><path style="opacity:1" fill="#09090a" d="M 255.5,204.5 C 260.214,204.173 264.88,204.507 269.5,205.5C 267.167,205.833 264.833,206.167 262.5,206.5C 259.731,206.471 257.397,205.805 255.5,204.5 Z"/></g>
<g><path style="opacity:1" fill="#574b5f" d="M 345.5,214.5 C 344.532,212.393 344.198,210.059 344.5,207.5C 347.32,203.849 350.32,203.849 353.5,207.5C 353.167,207.833 352.833,208.167 352.5,208.5C 346.205,205.106 343.872,207.106 345.5,214.5 Z"/></g>
<g><path style="opacity:1" fill="#5ca0dc" d="M 356.5,204.5 C 356.56,203.957 356.893,203.624 357.5,203.5C 358.662,208.131 358.828,212.798 358,217.5C 357.825,212.981 357.325,208.647 356.5,204.5 Z"/></g>
<g><path style="opacity:1" fill="#5c9dd7" d="M 283.5,205.5 C 283.56,204.957 283.893,204.624 284.5,204.5C 285.491,208.445 285.824,212.445 285.5,216.5C 284.833,212.833 284.167,209.167 283.5,205.5 Z"/></g>
<g><path style="opacity:1" fill="#5a4a51" d="M 322.5,211.5 C 321.209,210.458 321.209,209.292 322.5,208C 324.809,207.244 326.809,207.744 328.5,209.5C 328.167,209.833 327.833,210.167 327.5,210.5C 325.039,207.577 323.372,207.911 322.5,211.5 Z"/></g>
<g><path style="opacity:1" fill="#5c504b" d="M 381.5,207.5 C 383.103,207.312 384.437,207.812 385.5,209C 383.833,209.667 382.167,209.667 380.5,209C 381.056,208.617 381.389,208.117 381.5,207.5 Z"/></g>
<g><path style="opacity:1" fill="#60a0db" d="M 362.5,208.5 C 362.56,207.957 362.893,207.624 363.5,207.5C 364.657,210.784 364.824,214.118 364,217.5C 363.819,214.305 363.319,211.305 362.5,208.5 Z"/></g>
<g><path style="opacity:1" fill="#5a4652" d="M 399.5,207.5 C 402.183,207.227 403.683,208.227 404,210.5C 402.506,209.253 401.006,209.253 399.5,210.5C 400.919,212.127 400.586,212.627 398.5,212C 397.257,210.184 397.59,208.684 399.5,207.5 Z"/></g>
<g><path style="opacity:1" fill="#c99452" d="M 304.5,205.5 C 304.5,209.167 304.5,212.833 304.5,216.5C 303.746,213.977 303.08,211.311 302.5,208.5C 302.942,207.261 303.609,206.261 304.5,205.5 Z"/></g>
<g><path style="opacity:1" fill="#59688d" d="M 304.5,205.5 C 305.66,206.611 306.993,207.611 308.5,208.5C 305.887,211.418 305.887,214.251 308.5,217C 307.072,217.579 305.738,217.412 304.5,216.5C 304.5,212.833 304.5,209.167 304.5,205.5 Z"/></g>
<g><path style="opacity:1" fill="#4e6178" d="M 332.5,205.5 C 334.078,206.066 335.412,207.066 336.5,208.5C 333.887,211.418 333.887,214.251 336.5,217C 335.216,217.684 334.049,217.517 333,216.5C 332.501,212.848 332.335,209.182 332.5,205.5 Z"/></g>
<g><path style="opacity:1" fill="#203c75" d="M 391.5,205.5 C 392.482,208.962 392.815,212.629 392.5,216.5C 396.172,217.045 395.838,217.378 391.5,217.5C 391.5,213.5 391.5,209.5 391.5,205.5 Z"/></g>
<g><path style="opacity:1" fill="#1e1e1e" d="M 249.5,209.5 C 250.833,209.5 252.167,209.5 253.5,209.5C 253.5,210.833 253.5,212.167 253.5,213.5C 252.167,213.5 250.833,213.5 249.5,213.5C 249.5,212.167 249.5,210.833 249.5,209.5 Z"/></g>
<g><path style="opacity:1" fill="#060606" d="M 255.5,210.5 C 260.214,210.173 264.88,210.507 269.5,211.5C 267.167,211.833 264.833,212.167 262.5,212.5C 259.731,212.471 257.397,211.805 255.5,210.5 Z"/></g>
<g><path style="opacity:1" fill="#938a94" d="M 313.5,207.5 C 317.314,207.651 318.981,209.651 318.5,213.5C 316.5,213.5 314.5,213.5 312.5,213.5C 312.5,214.5 312.5,215.5 312.5,216.5C 314.492,216.672 316.158,216.005 317.5,214.5C 318.386,215.325 318.719,216.325 318.5,217.5C 315.881,217.768 313.381,217.435 311,216.5C 310.052,212.903 310.885,209.903 313.5,207.5 Z"/></g>
<g><path style="opacity:1" fill="#574e56" d="M 322.5,211.5 C 326.987,211.141 328.654,212.974 327.5,217C 325.833,217.667 324.167,217.667 322.5,217C 323.793,216.51 325.127,216.343 326.5,216.5C 326.719,215.325 326.386,214.325 325.5,213.5C 324.261,213.058 323.261,212.391 322.5,211.5 Z"/></g>
<g><path style="opacity:1" fill="#8c858d" d="M 369.5,207.5 C 373.324,207.735 375.324,209.735 375.5,213.5C 373.396,213.201 371.396,213.534 369.5,214.5C 370.381,215.971 371.714,216.804 373.5,217C 369.803,218.154 367.803,216.821 367.5,213C 367.395,210.822 368.061,208.988 369.5,207.5 Z"/></g>
<g><path style="opacity:1" fill="#3d68ff" d="M -0.5,212.5 C 74.8333,212.5 150.167,212.5 225.5,212.5C 225.5,444.167 225.5,675.833 225.5,907.5C 150.167,907.5 74.8333,907.5 -0.5,907.5C -0.5,675.833 -0.5,444.167 -0.5,212.5 Z"/></g>
<g><path style="opacity:1" fill="#5e525e" d="M 297.5,216.5 C 293.531,218.341 292.197,217.175 293.5,213C 295.134,212.506 296.801,212.34 298.5,212.5C 298.5,211.167 298.5,209.833 298.5,208.5C 296.516,208.383 294.85,209.05 293.5,210.5C 293.167,210.167 292.833,209.833 292.5,209.5C 294.599,207.48 296.933,207.146 299.5,208.5C 300.748,211.494 300.748,214.494 299.5,217.5C 298.817,217.137 298.15,216.804 297.5,216.5 Z"/></g>
<g><path style="opacity:1" fill="#f1eee4" d="M 297.5,216.5 C 296.5,216.5 295.5,216.5 294.5,216.5C 294.5,215.5 294.5,214.5 294.5,213.5C 297.567,213.121 298.567,214.121 297.5,216.5 Z"/></g>
<g><path style="opacity:1" fill="#924f26" d="M 344.5,207.5 C 344.198,210.059 344.532,212.393 345.5,214.5C 345.5,214.833 345.5,215.167 345.5,215.5C 345.5,215.833 345.5,216.167 345.5,216.5C 344.883,216.389 344.383,216.056 344,215.5C 343.199,212.633 343.366,209.966 344.5,207.5 Z"/></g>
<g><path style="opacity:1" fill="#202020" d="M 249.5,215.5 C 250.833,215.5 252.167,215.5 253.5,215.5C 253.5,216.833 253.5,218.167 253.5,219.5C 252.167,219.5 250.833,219.5 249.5,219.5C 249.5,218.167 249.5,216.833 249.5,215.5 Z"/></g>
<g><path style="opacity:1" fill="#070707" d="M 255.5,216.5 C 260.214,216.173 264.88,216.507 269.5,217.5C 267.167,217.833 264.833,218.167 262.5,218.5C 259.731,218.471 257.397,217.805 255.5,216.5 Z"/></g>
<g><path style="opacity:1" fill="#390c0c" d="M 283.5,205.5 C 284.167,209.167 284.833,212.833 285.5,216.5C 287.199,216.34 288.866,216.506 290.5,217C 288.19,217.497 285.857,217.663 283.5,217.5C 283.5,213.5 283.5,209.5 283.5,205.5 Z"/></g>
<g><path style="opacity:1" fill="#402e3d" d="M 345.5,216.5 C 345.5,216.167 345.5,215.833 345.5,215.5C 348.537,217.265 350.87,216.598 352.5,213.5C 353.594,214.868 353.26,216.035 351.5,217C 349.402,217.678 347.402,217.511 345.5,216.5 Z"/></g>
<g><path style="opacity:1" fill="#cbd6ff" d="M 23.5,233.5 C 26.5719,233.183 29.5719,233.516 32.5,234.5C 31,234.833 29.5,235.167 28,235.5C 26.0145,235.431 24.5145,234.765 23.5,233.5 Z"/></g>
<g><path style="opacity:1" fill="#abbbff" d="M 70.5,233.5 C 72.0481,233.821 72.7148,234.821 72.5,236.5C 69.7524,236.598 69.0857,235.598 70.5,233.5 Z"/></g>
<g><path style="opacity:1" fill="#bccaff" d="M 50.5,234.5 C 53.2469,234.187 55.9135,234.52 58.5,235.5C 56.604,236.466 54.604,236.799 52.5,236.5C 52.5,237.5 52.5,238.5 52.5,239.5C 58.373,239.598 58.7064,240.598 53.5,242.5C 55.1667,243.167 56.8333,243.833 58.5,244.5C 55.9135,245.48 53.2469,245.813 50.5,245.5C 50.5,241.833 50.5,238.167 50.5,234.5 Z"/></g>
<g><path style="opacity:1" fill="#ccd7ff" d="M 23.5,237.5 C 28.2137,237.173 32.8804,237.507 37.5,238.5C 35.1667,238.833 32.8333,239.167 30.5,239.5C 27.7305,239.471 25.3972,238.805 23.5,237.5 Z"/></g>
<g><path style="opacity:1" fill="#bac8ff" d="M 65.5,234.5 C 67.4136,237.684 68.0803,241.351 67.5,245.5C 60.6585,247.257 58.3252,244.924 60.5,238.5C 62.0709,237.691 63.7376,237.357 65.5,237.5C 65.5,236.5 65.5,235.5 65.5,234.5 Z"/></g>
<g><path style="opacity:1" fill="#c4d0ff" d="M 75.5,235.5 C 76.9311,236.082 78.2644,236.915 79.5,238C 76.8333,240.333 76.8333,242.667 79.5,245C 78.2068,245.49 76.8734,245.657 75.5,245.5C 75.0181,242.054 75.0181,238.721 75.5,235.5 Z"/></g>
<g><path style="opacity:1" fill="#1f2937" d="M 1895.5,281.5 C 1346.83,281.5 798.167,281.5 249.5,281.5C 249.5,266.833 249.5,252.167 249.5,237.5C 798.167,237.5 1346.83,237.5 1895.5,237.5C 1895.5,252.167 1895.5,266.833 1895.5,281.5 Z"/></g>
<g><path style="opacity:1" fill="#c0ceff" d="M 70.5,237.5 C 71.7479,238.334 72.4146,239.667 72.5,241.5C 72.1667,242.833 71.8333,244.167 71.5,245.5C 70.52,242.914 70.1866,240.247 70.5,237.5 Z"/></g>
<g><path style="opacity:1" fill="#b6c4ff" d="M 105.5,237.5 C 111.313,237.062 112.98,239.562 110.5,245C 104.593,245.746 102.927,243.246 105.5,237.5 Z"/></g>
<g><path style="opacity:1" fill="#bac8ff" d="M 113.5,237.5 C 115.288,237.215 116.955,237.548 118.5,238.5C 116.827,240.523 116.16,242.856 116.5,245.5C 115.5,245.5 114.5,245.5 113.5,245.5C 113.5,242.833 113.5,240.167 113.5,237.5 Z"/></g>
<g><path style="opacity:1" fill="#406aff" d="M 62.5,239.5 C 63.5862,239.62 64.2528,240.287 64.5,241.5C 64.1667,242.167 63.8333,242.833 63.5,243.5C 62.5713,242.311 62.238,240.978 62.5,239.5 Z"/></g>
<g><path style="opacity:1" fill="#cbd6ff" d="M 23.5,241.5 C 26.5719,241.183 29.5719,241.516 32.5,242.5C 31,242.833 29.5,243.167 28,243.5C 26.0145,243.431 24.5145,242.765 23.5,241.5 Z"/></g>
<g><path style="opacity:1" fill="#bccaff" d="M 91.5,234.5 C 92.5,234.5 93.5,234.5 94.5,234.5C 94.8204,237.898 94.487,241.232 93.5,244.5C 90.9665,245.788 88.4665,245.788 86,244.5C 85.1786,241.446 85.3452,238.446 86.5,235.5C 87.48,238.086 87.8134,240.753 87.5,243.5C 88.8333,243.5 90.1667,243.5 91.5,243.5C 91.5,240.5 91.5,237.5 91.5,234.5 Z"/></g>
<g><path style="opacity:1" fill="#b6c4ff" d="M 96.5,237.5 C 98.604,237.201 100.604,237.534 102.5,238.5C 101.271,239.281 99.938,239.781 98.5,240C 100.081,240.707 101.581,241.54 103,242.5C 103.617,243.449 103.451,244.282 102.5,245C 100.231,245.758 98.0639,245.591 96,244.5C 95.5439,243.256 96.0439,242.423 97.5,242C 95.4523,240.774 95.119,239.274 96.5,237.5 Z"/></g>
<g><path style="opacity:1" fill="#ccd7ff" d="M 23.5,245.5 C 28.2137,245.173 32.8804,245.507 37.5,246.5C 35.1667,246.833 32.8333,247.167 30.5,247.5C 27.7305,247.471 25.3972,246.805 23.5,245.5 Z"/></g>
<g><path style="opacity:1" fill="#ebe5d9" d="M 779.5,254.5 C 786.997,253.804 788.997,256.637 785.5,263C 783.527,263.495 781.527,263.662 779.5,263.5C 779.5,260.5 779.5,257.5 779.5,254.5 Z"/></g>
<g><path style="opacity:1" fill="#dcdbd3" d="M 788.5,254.5 C 790.857,254.337 793.19,254.503 795.5,255C 798.1,257.459 798.1,259.959 795.5,262.5C 793.253,263.374 790.92,263.708 788.5,263.5C 788.5,260.5 788.5,257.5 788.5,254.5 Z"/></g>
<g><path style="opacity:1" fill="#e3e5e1" d="M 815.5,254.5 C 817.527,254.338 819.527,254.505 821.5,255C 822.711,255.893 822.711,256.726 821.5,257.5C 820.232,256.572 818.899,256.405 817.5,257C 819.025,258.009 820.692,258.509 822.5,258.5C 822.5,260.167 822.5,261.833 822.5,263.5C 820.208,263.756 818.041,263.423 816,262.5C 815.312,261.668 815.479,261.002 816.5,260.5C 817.768,261.428 819.101,261.595 820.5,261C 819.109,259.98 817.609,259.147 816,258.5C 815.51,257.207 815.343,255.873 815.5,254.5 Z"/></g>
<g><path style="opacity:1" fill="#e3e5e1" d="M 824.5,254.5 C 826.527,254.338 828.527,254.505 830.5,255C 831.711,255.893 831.711,256.726 830.5,257.5C 829.232,256.572 827.899,256.405 826.5,257C 828.025,258.009 829.692,258.509 831.5,258.5C 831.5,260.167 831.5,261.833 831.5,263.5C 829.208,263.756 827.041,263.423 825,262.5C 824.312,261.668 824.479,261.002 825.5,260.5C 826.768,261.428 828.101,261.595 829.5,261C 828.109,259.98 826.609,259.147 825,258.5C 824.51,257.207 824.343,255.873 824.5,254.5 Z"/></g>
<g><path style="opacity:1" fill="#dae0dd" d="M 1273.5,254.5 C 1275.83,254.5 1278.17,254.5 1280.5,254.5C 1281.4,258.241 1280.07,260.241 1276.5,260.5C 1276.5,261.5 1276.5,262.5 1276.5,263.5C 1275.5,263.5 1274.5,263.5 1273.5,263.5C 1273.5,260.5 1273.5,257.5 1273.5,254.5 Z"/></g>
<g><path style="opacity:1" fill="#dadfd5" d="M 1281.5,254.5 C 1282.5,254.5 1283.5,254.5 1284.5,254.5C 1284.5,255.833 1284.5,257.167 1284.5,258.5C 1285.5,258.5 1286.5,258.5 1287.5,258.5C 1288.26,253.248 1288.92,253.415 1289.5,259C 1288.92,264.585 1288.26,264.752 1287.5,259.5C 1286.5,259.5 1285.5,259.5 1284.5,259.5C 1284.5,260.833 1284.5,262.167 1284.5,263.5C 1283.5,263.5 1282.5,263.5 1281.5,263.5C 1281.5,260.5 1281.5,257.5 1281.5,254.5 Z"/></g>
<g><path style="opacity:1" fill="#e8e7de" d="M 1301.5,254.5 C 1304.59,254.626 1306.43,256.293 1307,259.5C 1307.2,257.744 1307.7,256.078 1308.5,254.5C 1309.48,257.428 1309.82,260.428 1309.5,263.5C 1306.83,262.901 1305,261.234 1304,258.5C 1303.8,260.256 1303.3,261.922 1302.5,263.5C 1301.52,260.572 1301.18,257.572 1301.5,254.5 Z"/></g>
<g><path style="opacity:1" fill="#223145" d="M 781.5,256.5 C 782.5,256.5 783.5,256.5 784.5,256.5C 784.5,258.167 784.5,259.833 784.5,261.5C 783.5,261.5 782.5,261.5 781.5,261.5C 781.5,259.833 781.5,258.167 781.5,256.5 Z"/></g>
<g><path style="opacity:1" fill="#24324a" d="M 791.5,256.5 C 792.5,256.5 793.5,256.5 794.5,256.5C 794.5,258.167 794.5,259.833 794.5,261.5C 793.5,261.5 792.5,261.5 791.5,261.5C 791.5,259.833 791.5,258.167 791.5,256.5 Z"/></g>
<g><path style="opacity:1" fill="#212e4d" d="M 1276.5,256.5 C 1278.34,256.639 1278.67,257.306 1277.5,258.5C 1276.7,258.043 1276.37,257.376 1276.5,256.5 Z"/></g>
<g><path style="opacity:1" fill="#d4d1ce" d="M 297.5,254.5 C 299.924,254.192 302.257,254.526 304.5,255.5C 303.271,256.281 301.938,256.781 300.5,257C 301.448,257.483 302.448,257.649 303.5,257.5C 303.5,258.5 303.5,259.5 303.5,260.5C 302.448,260.351 301.448,260.517 300.5,261C 301.938,261.219 303.271,261.719 304.5,262.5C 302.257,263.474 299.924,263.808 297.5,263.5C 297.5,260.5 297.5,257.5 297.5,254.5 Z"/></g>
<g><path style="opacity:1" fill="#e8e6dc" d="M 798.5,254.5 C 800.792,254.244 802.959,254.577 805,255.5C 804.952,257.926 805.119,260.259 805.5,262.5C 805,262.833 804.5,263.167 804,263.5C 802.779,262.728 801.779,261.728 801,260.5C 800.751,261.624 800.251,262.624 799.5,263.5C 798.516,260.572 798.183,257.572 798.5,254.5 Z"/></g>
<g><path style="opacity:1" fill="#453150" d="M 800.5,256.5 C 801.675,256.281 802.675,256.614 803.5,257.5C 801.948,258.798 800.948,258.465 800.5,256.5 Z"/></g>
<g><path style="opacity:1" fill="#e2e5df" d="M 807.5,254.5 C 809.527,254.338 811.527,254.505 813.5,255C 812.207,255.49 810.873,255.657 809.5,255.5C 809.5,256.5 809.5,257.5 809.5,258.5C 813.971,258.672 814.304,259.506 810.5,261C 811.624,261.249 812.624,261.749 813.5,262.5C 811.604,263.466 809.604,263.799 807.5,263.5C 807.5,260.5 807.5,257.5 807.5,254.5 Z"/></g>
<g><path style="opacity:1" fill="#e2e5df" d="M 1311.5,254.5 C 1313.53,254.338 1315.53,254.505 1317.5,255C 1316.21,255.49 1314.87,255.657 1313.5,255.5C 1313.5,256.5 1313.5,257.5 1313.5,258.5C 1317.97,258.672 1318.3,259.506 1314.5,261C 1315.62,261.249 1316.62,261.749 1317.5,262.5C 1315.6,263.466 1313.6,263.799 1311.5,263.5C 1311.5,260.5 1311.5,257.5 1311.5,254.5 Z"/></g>
<g><path style="opacity:1" fill="#e4ded3" d="M 278.5,254.5 C 279.822,254.33 280.989,254.663 282,255.5C 282.761,258.053 283.594,260.553 284.5,263C 282.801,263.393 281.301,262.893 280,261.5C 278.699,262.893 277.199,263.393 275.5,263C 276.798,260.273 277.798,257.44 278.5,254.5 Z"/></g>
<g><path style="opacity:1" fill="#e6e8e3" d="M 285.5,254.5 C 287.912,254.244 289.579,255.244 290.5,257.5C 291.421,255.244 293.088,254.244 295.5,254.5C 295.817,257.572 295.484,260.572 294.5,263.5C 293.719,262.271 293.219,260.938 293,259.5C 290.723,263.547 289.056,263.214 288,258.5C 287.798,260.256 287.298,261.922 286.5,263.5C 285.516,260.572 285.183,257.572 285.5,254.5 Z"/></g>
<g><path style="opacity:1" fill="#e7eae5" d="M 266.5,254.5 C 269.595,254.626 271.428,256.293 272,259.5C 272.202,257.744 272.702,256.078 273.5,254.5C 274.484,257.428 274.817,260.428 274.5,263.5C 273.325,263.719 272.325,263.386 271.5,262.5C 269.377,257.155 268.043,257.489 267.5,263.5C 266.516,260.572 266.183,257.572 266.5,254.5 Z"/></g>
<g><path style="opacity:1" fill="#e0ded8" d="M 772.5,254.5 C 773.675,254.281 774.675,254.614 775.5,255.5C 776.407,258.057 777.407,260.557 778.5,263C 776.801,263.393 775.301,262.893 774,261.5C 773,262.167 772,262.833 771,263.5C 770.5,263.167 770,262.833 769.5,262.5C 770.513,259.812 771.513,257.146 772.5,254.5 Z"/></g>
<g><path style="opacity:1" fill="#e6e0d7" d="M 1292.5,254.5 C 1300,253.804 1302,256.637 1298.5,263C 1291.78,263.726 1289.78,260.893 1292.5,254.5 Z"/></g>
<g><path style="opacity:1" fill="#322e41" d="M 1293.5,256.5 C 1294.83,256.5 1296.17,256.5 1297.5,256.5C 1297.5,258.167 1297.5,259.833 1297.5,261.5C 1294.09,261.616 1292.76,259.95 1293.5,256.5 Z"/></g>
<g><path style="opacity:1" fill="#e4e6ea" d="M 249.5,281.5 C 798.167,281.5 1346.83,281.5 1895.5,281.5C 1895.5,299.833 1895.5,318.167 1895.5,336.5C 1346.83,336.5 798.167,336.5 249.5,336.5C 249.5,318.167 249.5,299.833 249.5,281.5 Z"/></g>
<g><path style="opacity:1" fill="#4573eb" d="M 1806.5,300.5 C 1810.48,300.629 1811.82,302.463 1810.5,306C 1806.97,305.645 1805.63,303.812 1806.5,300.5 Z"/></g>
<g><path style="opacity:1" fill="#4163a4" d="M 377.5,303.5 C 378.643,306.976 378.81,310.642 378,314.5C 376.906,310.718 376.74,307.051 377.5,303.5 Z"/></g>
<g><path style="opacity:1" fill="#4d506a" d="M 1282.5,305.5 C 1284.69,304.203 1287.03,304.203 1289.5,305.5C 1289.19,306.308 1288.69,306.975 1288,307.5C 1286.6,305.808 1284.77,305.141 1282.5,305.5 Z"/></g>
<g><path style="opacity:1" fill="#356aeb" d="M 1802.5,304.5 C 1805.52,304.364 1807.02,305.698 1807,308.5C 1804.5,311 1802,313.5 1799.5,316C 1798.21,316.49 1796.87,316.657 1795.5,316.5C 1795.34,314.801 1795.51,313.134 1796,311.5C 1798.37,309.297 1800.54,306.963 1802.5,304.5 Z"/></g>
<g><path style="opacity:1" fill="#dd3b3a" d="M 1860.5,298.5 C 1863.08,299.728 1865.41,301.395 1867.5,303.5C 1875.5,296.833 1876.17,297.5 1869.5,305.5C 1876.17,313.5 1875.5,314.167 1867.5,307.5C 1859.5,314.167 1858.83,313.5 1865.5,305.5C 1863.4,303.408 1861.73,301.075 1860.5,298.5 Z"/></g>
<g><path style="opacity:1" fill="#4977a9" d="M 337.5,314.5 C 337.5,311.167 337.5,307.833 337.5,304.5C 338.251,303.427 339.251,303.26 340.5,304C 338.519,304.605 338.185,305.605 339.5,307C 338.877,309.607 338.21,312.107 337.5,314.5 Z"/></g>
<g><path style="opacity:1" fill="#b0b0bc" d="M 1292.5,304.5 C 1298.19,304.548 1299.86,307.215 1297.5,312.5C 1293.57,315.592 1291.24,314.592 1290.5,309.5C 1290.9,307.7 1291.57,306.033 1292.5,304.5 Z"/></g>
<g><path style="opacity:1" fill="#5f5872" d="M 1301.5,310.5 C 1299.43,305.396 1301.1,303.563 1306.5,305C 1299.92,306.27 1299.92,307.77 1306.5,309.5C 1304.75,309.973 1303.09,310.307 1301.5,310.5 Z"/></g>
<g><path style="opacity:1" fill="#5f5872" d="M 1325.5,305.5 C 1318.94,306.317 1318.94,307.65 1325.5,309.5C 1323.75,309.973 1322.09,310.307 1320.5,310.5C 1318.62,305.05 1320.28,303.383 1325.5,305.5 Z"/></g>
<g><path style="opacity:1" fill="#8797b5" d="M 277.5,313.5 C 276.458,314.791 275.292,314.791 274,313.5C 273.186,311.098 273.353,308.765 274.5,306.5C 274.938,309.295 275.938,311.628 277.5,313.5 Z"/></g>
<g><path style="opacity:1" fill="#958e9c" d="M 310.5,306.5 C 312.144,306.286 313.644,306.62 315,307.5C 315.456,308.744 314.956,309.577 313.5,310C 316.226,313.63 315.226,314.963 310.5,314C 314.363,312.186 314.03,311.02 309.5,310.5C 309.433,309.041 309.766,307.708 310.5,306.5 Z"/></g>
<g><path style="opacity:1" fill="#b48055" d="M 337.5,304.5 C 337.5,307.833 337.5,311.167 337.5,314.5C 336.79,312.107 336.123,309.607 335.5,307C 336.066,306.005 336.733,305.172 337.5,304.5 Z"/></g>
<g><path style="opacity:1" fill="#9e9aa9" d="M 342.5,306.5 C 348.191,306.548 349.857,309.215 347.5,314.5C 346.614,313.675 346.281,312.675 346.5,311.5C 343.282,311.651 342.949,312.484 345.5,314C 341.357,314.38 340.69,313.047 343.5,310C 341.273,309.296 340.94,308.129 342.5,306.5 Z"/></g>
<g><path style="opacity:1" fill="#3e61a0" d="M 359.5,303.5 C 360.552,303.351 361.552,303.517 362.5,304C 360.795,307.168 359.962,310.668 360,314.5C 359.501,310.848 359.335,307.182 359.5,303.5 Z"/></g>
<g><path style="opacity:1" fill="#3e61a0" d="M 382.5,303.5 C 383.552,303.351 384.552,303.517 385.5,304C 383.795,307.168 382.962,310.668 383,314.5C 382.501,310.848 382.335,307.182 382.5,303.5 Z"/></g>
<g><path style="opacity:1" fill="#4e4f6c" d="M 809.5,304.5 C 815.167,304.664 815.5,304.997 810.5,305.5C 810.5,306.5 810.5,307.5 810.5,308.5C 815.5,309.003 815.167,309.336 809.5,309.5C 809.5,307.833 809.5,306.167 809.5,304.5 Z"/></g>
<g><path style="opacity:1" fill="#7a91b6" d="M 818.5,305.5 C 819.314,307.631 819.814,309.964 820,312.5C 821.067,313.191 822.234,313.691 823.5,314C 819.707,315.052 817.707,313.552 817.5,309.5C 817.846,308.151 818.179,306.817 818.5,305.5 Z"/></g>
<g><path style="opacity:1" fill="#8f8b99" d="M 1311.5,304.5 C 1317.19,304.548 1318.86,307.215 1316.5,312.5C 1315.75,311.624 1315.25,310.624 1315,309.5C 1310.63,310.575 1309.47,308.908 1311.5,304.5 Z"/></g>
<g><path style="opacity:1" fill="#aaacbd" d="M 1325.5,305.5 C 1327.38,307.915 1327.71,310.582 1326.5,313.5C 1324.57,314.52 1322.57,314.687 1320.5,314C 1319.21,312.708 1319.21,311.542 1320.5,310.5C 1322.09,310.307 1323.75,309.973 1325.5,309.5C 1318.94,307.65 1318.94,306.317 1325.5,305.5 Z"/></g>
<g><path style="opacity:1" fill="#5a6d9b" d="M 1334.5,305.5 C 1335.75,306.334 1336.41,307.667 1336.5,309.5C 1336.9,314.069 1334.9,315.569 1330.5,314C 1329.39,311.263 1329.22,308.429 1330,305.5C 1331.62,304.199 1333.12,304.199 1334.5,305.5 Z"/></g>
<g><path style="opacity:1" fill="#e2dbd6" d="M 1334.5,305.5 C 1335.54,307.738 1335.7,310.071 1335,312.5C 1333.67,313.833 1332.33,313.833 1331,312.5C 1330.33,310.5 1330.33,308.5 1331,306.5C 1332.01,305.663 1333.18,305.33 1334.5,305.5 Z"/></g>
<g><path style="opacity:1" fill="#7a91b6" d="M 1339.5,305.5 C 1340.31,307.631 1340.81,309.964 1341,312.5C 1342.07,313.191 1343.23,313.691 1344.5,314C 1340.71,315.052 1338.71,313.552 1338.5,309.5C 1338.85,308.151 1339.18,306.817 1339.5,305.5 Z"/></g>
<g><path style="opacity:1" fill="#6b4e7b" d="M 294.5,307.5 C 295.542,306.209 296.708,306.209 298,307.5C 298.667,309.833 298.667,312.167 298,314.5C 297.667,312.5 297.333,310.5 297,308.5C 296.329,307.748 295.496,307.414 294.5,307.5 Z"/></g>
<g><path style="opacity:1" fill="#a5a6b6" d="M 302.5,306.5 C 303.93,306.421 305.264,306.754 306.5,307.5C 307.1,309.576 307.433,311.576 307.5,313.5C 305.647,314.76 303.814,314.76 302,313.5C 301.444,311.115 301.61,308.782 302.5,306.5 Z"/></g>
<g><path style="opacity:1" fill="#8491b0" d="M 772.5,306.5 C 774.346,306.222 775.68,306.889 776.5,308.5C 775.431,308.36 774.264,308.36 773,308.5C 772.667,310.167 772.333,311.833 772,313.5C 770.03,311.037 770.196,308.703 772.5,306.5 Z"/></g>
<g><path style="opacity:1" fill="#5e6386" d="M 1275.5,304.5 C 1276.87,304.343 1278.21,304.51 1279.5,305C 1277.43,305.118 1276.09,306.118 1275.5,308C 1276.36,309.451 1276.52,310.951 1276,312.5C 1277.07,313.191 1278.23,313.691 1279.5,314C 1277.89,314.72 1276.39,314.554 1275,313.5C 1274.26,310.408 1274.43,307.408 1275.5,304.5 Z"/></g>
<g><path style="opacity:1" fill="#3f79b5" d="M 294.5,307.5 C 293.79,309.746 293.29,312.08 293,314.5C 292.833,313.333 292.667,312.167 292.5,311C 292.608,309.319 293.275,308.152 294.5,307.5 Z"/></g>
<g><path style="opacity:1" fill="#6e6778" d="M 351.5,310.5 C 352.721,309.535 354.054,309.702 355.5,311C 356.451,311.718 356.617,312.551 356,313.5C 354.612,314.554 353.112,314.72 351.5,314C 355.333,312.977 355.333,311.81 351.5,310.5 Z"/></g>
<g><path style="opacity:1" fill="#6e6778" d="M 364.5,310.5 C 365.721,309.535 367.054,309.702 368.5,311C 369.451,311.718 369.617,312.551 369,313.5C 367.612,314.554 366.112,314.72 364.5,314C 368.333,312.977 368.333,311.81 364.5,310.5 Z"/></g>
<g><path style="opacity:1" fill="#895f58" d="M 277.5,313.5 C 278.21,311.254 278.71,308.92 279,306.5C 279.667,309.167 279.667,311.833 279,314.5C 278.617,313.944 278.117,313.611 277.5,313.5 Z"/></g>
<g><path style="opacity:1" fill="#75738c" d="M 287.5,307.5 C 288.117,307.611 288.617,307.944 289,308.5C 289.495,310.473 289.662,312.473 289.5,314.5C 287.473,314.662 285.473,314.495 283.5,314C 282.179,312.455 282.512,311.289 284.5,310.5C 285.506,310.938 285.506,311.604 284.5,312.5C 285.325,313.386 286.325,313.719 287.5,313.5C 287.5,311.5 287.5,309.5 287.5,307.5 Z"/></g>
<g><path style="opacity:1" fill="#75738c" d="M 326.5,307.5 C 327.117,307.611 327.617,307.944 328,308.5C 328.495,310.473 328.662,312.473 328.5,314.5C 326.473,314.662 324.473,314.495 322.5,314C 321.179,312.455 321.512,311.289 323.5,310.5C 324.506,310.938 324.506,311.604 323.5,312.5C 324.325,313.386 325.325,313.719 326.5,313.5C 326.5,311.5 326.5,309.5 326.5,307.5 Z"/></g>
<g><path style="opacity:1" fill="#75738c" d="M 783.5,307.5 C 784.117,307.611 784.617,307.944 785,308.5C 785.495,310.473 785.662,312.473 785.5,314.5C 783.473,314.662 781.473,314.495 779.5,314C 778.179,312.455 778.512,311.289 780.5,310.5C 781.506,310.938 781.506,311.604 780.5,312.5C 781.325,313.386 782.325,313.719 783.5,313.5C 783.5,311.5 783.5,309.5 783.5,307.5 Z"/></g>
<g><path style="opacity:1" fill="#5c586a" d="M 808.5,311.5 C 810.189,312.931 812.189,313.764 814.5,314C 812.833,314.667 811.167,314.667 809.5,314C 808.748,313.329 808.414,312.496 808.5,311.5 Z"/></g>
<g><path style="opacity:1" fill="#6f7299" d="M 1286.5,308.5 C 1287.04,308.56 1287.38,308.893 1287.5,309.5C 1286.32,311.046 1285.32,312.713 1284.5,314.5C 1284.17,314.167 1283.83,313.833 1283.5,313.5C 1284.26,311.64 1285.26,309.973 1286.5,308.5 Z"/></g>
<g><path style="opacity:1" fill="#48536f" d="M 1301.5,310.5 C 1301.41,311.496 1301.75,312.329 1302.5,313C 1303.83,313.333 1305.17,313.667 1306.5,314C 1304.83,314.667 1303.17,314.667 1301.5,314C 1300.21,312.708 1300.21,311.542 1301.5,310.5 Z"/></g>
<g><path style="opacity:1" fill="#fefefe" d="M 249.5,336.5 C 798.167,336.5 1346.83,336.5 1895.5,336.5C 1895.5,354.833 1895.5,373.167 1895.5,391.5C 1346.83,391.5 798.167,391.5 249.5,391.5C 249.5,373.167 249.5,354.833 249.5,336.5 Z"/></g>
<g><path style="opacity:1" fill="#4976ed" d="M 1806.5,355.5 C 1810.48,355.629 1811.82,357.463 1810.5,361C 1806.97,360.645 1805.63,358.812 1806.5,355.5 Z"/></g>
<g><path style="opacity:1" fill="#4369af" d="M 377.5,358.5 C 378.643,361.976 378.81,365.642 378,369.5C 376.906,365.718 376.74,362.051 377.5,358.5 Z"/></g>
<g><path style="opacity:1" fill="#4c5876" d="M 772.5,363.5 C 771.566,362.432 771.232,361.099 771.5,359.5C 777.167,359.664 777.5,359.997 772.5,360.5C 772.5,361.5 772.5,362.5 772.5,363.5 Z"/></g>
<g><path style="opacity:1" fill="#40455c" d="M 1305.5,360.5 C 1307.26,359.539 1309.26,359.205 1311.5,359.5C 1311.65,360.552 1311.48,361.552 1311,362.5C 1309.6,360.808 1307.77,360.141 1305.5,360.5 Z"/></g>
<g><path style="opacity:1" fill="#7888a8" d="M 1317.5,359.5 C 1319,361.562 1320.33,363.895 1321.5,366.5C 1320.48,367.354 1319.64,368.354 1319,369.5C 1317.47,368.08 1315.64,367.08 1313.5,366.5C 1314.56,366.094 1315.89,366.094 1317.5,366.5C 1316.93,364.031 1316.93,361.698 1317.5,359.5 Z"/></g>
<g><path style="opacity:1" fill="#376bec" d="M 1802.5,359.5 C 1805.52,359.364 1807.02,360.698 1807,363.5C 1804.5,366 1802,368.5 1799.5,371C 1798.21,371.49 1796.87,371.657 1795.5,371.5C 1795.34,369.801 1795.51,368.134 1796,366.5C 1798.37,364.297 1800.54,361.963 1802.5,359.5 Z"/></g>
<g><path style="opacity:1" fill="#df3e3c" d="M 1860.5,353.5 C 1863.08,354.728 1865.41,356.395 1867.5,358.5C 1875.5,351.833 1876.17,352.5 1869.5,360.5C 1876.17,368.5 1875.5,369.167 1867.5,362.5C 1859.5,369.167 1858.83,368.5 1865.5,360.5C 1863.4,358.408 1861.73,356.075 1860.5,353.5 Z"/></g>
<g><path style="opacity:1" fill="#4c7fb5" d="M 337.5,369.5 C 337.5,366.167 337.5,362.833 337.5,359.5C 338.251,358.427 339.251,358.26 340.5,359C 338.519,359.605 338.185,360.605 339.5,362C 338.877,364.607 338.21,367.107 337.5,369.5 Z"/></g>
<g><path style="opacity:1" fill="#d0d2d1" d="M 1351.5,360.5 C 1351.78,362.346 1351.11,363.68 1349.5,364.5C 1347.89,363.68 1347.22,362.346 1347.5,360.5C 1348.83,359.167 1350.17,359.167 1351.5,360.5 Z"/></g>
<g><path style="opacity:1" fill="#8e858d" d="M 1294.5,359.5 C 1298.68,358.842 1300.18,360.508 1299,364.5C 1297.69,365.772 1296.19,366.772 1294.5,367.5C 1300.96,368.97 1300.63,369.637 1293.5,369.5C 1293.24,368.022 1293.57,366.689 1294.5,365.5C 1297.15,364.543 1297.82,362.876 1296.5,360.5C 1293.8,363.392 1293.13,363.058 1294.5,359.5 Z"/></g>
<g><path style="opacity:1" fill="#bf8555" d="M 1323.5,359.5 C 1324.64,362.64 1324.81,365.973 1324,369.5C 1323.78,366.574 1323.28,363.74 1322.5,361C 1323.06,360.617 1323.39,360.117 1323.5,359.5 Z"/></g>
<g><path style="opacity:1" fill="#919dbe" d="M 784.5,368.5 C 785.167,368.5 785.5,368.833 785.5,369.5C 780.684,368.833 779.351,366.167 781.5,361.5C 781.938,364.295 782.938,366.628 784.5,368.5 Z"/></g>
<g><path style="opacity:1" fill="#a299a6" d="M 310.5,361.5 C 312.144,361.286 313.644,361.62 315,362.5C 315.456,363.744 314.956,364.577 313.5,365C 316.226,368.63 315.226,369.963 310.5,369C 314.363,367.186 314.03,366.02 309.5,365.5C 309.433,364.041 309.766,362.708 310.5,361.5 Z"/></g>
<g><path style="opacity:1" fill="#c78a56" d="M 337.5,359.5 C 337.5,362.833 337.5,366.167 337.5,369.5C 336.79,367.107 336.123,364.607 335.5,362C 336.066,361.005 336.733,360.172 337.5,359.5 Z"/></g>
<g><path style="opacity:1" fill="#aea7b4" d="M 342.5,361.5 C 348.191,361.548 349.857,364.215 347.5,369.5C 346.614,368.675 346.281,367.675 346.5,366.5C 343.282,366.651 342.949,367.484 345.5,369C 341.357,369.38 340.69,368.047 343.5,365C 341.273,364.296 340.94,363.129 342.5,361.5 Z"/></g>
<g><path style="opacity:1" fill="#4066aa" d="M 359.5,358.5 C 360.552,358.351 361.552,358.517 362.5,359C 360.795,362.168 359.962,365.668 360,369.5C 359.501,365.848 359.335,362.182 359.5,358.5 Z"/></g>
<g><path style="opacity:1" fill="#4066aa" d="M 382.5,358.5 C 383.552,358.351 384.552,358.517 385.5,359C 383.795,362.168 382.962,365.668 383,369.5C 382.501,365.848 382.335,362.182 382.5,358.5 Z"/></g>
<g><path style="opacity:1" fill="#7d8cb1" d="M 1328.5,360.5 C 1329.31,362.631 1329.81,364.964 1330,367.5C 1331.07,368.191 1332.23,368.691 1333.5,369C 1329.71,370.052 1327.71,368.552 1327.5,364.5C 1327.85,363.151 1328.18,361.817 1328.5,360.5 Z"/></g>
<g><path style="opacity:1" fill="#6298d3" d="M 1333.5,360.5 C 1334.12,360.611 1334.62,360.944 1335,361.5C 1335.67,363.5 1335.67,365.5 1335,367.5C 1334.56,365.134 1334.06,362.801 1333.5,360.5 Z"/></g>
<g><path style="opacity:1" fill="#59698b" d="M 1343.5,367.5 C 1342.95,364.916 1341.29,363.916 1338.5,364.5C 1338.5,362.833 1338.5,361.167 1338.5,359.5C 1344.17,359.664 1344.5,359.997 1339.5,360.5C 1339.5,361.5 1339.5,362.5 1339.5,363.5C 1343.52,362.839 1344.85,364.172 1343.5,367.5 Z"/></g>
<g><path style="opacity:1" fill="#7d6f89" d="M 1347.5,360.5 C 1347.22,362.346 1347.89,363.68 1349.5,364.5C 1351.11,363.68 1351.78,362.346 1351.5,360.5C 1352.12,360.611 1352.62,360.944 1353,361.5C 1354.83,367.057 1353,369.557 1347.5,369C 1348.79,368.51 1350.13,368.343 1351.5,368.5C 1351.5,367.5 1351.5,366.5 1351.5,365.5C 1346.97,365.995 1345.64,364.328 1347.5,360.5 Z"/></g>
<g><path style="opacity:1" fill="#52516f" d="M 1356.5,359.5 C 1362.17,359.664 1362.5,359.997 1357.5,360.5C 1357.5,361.5 1357.5,362.5 1357.5,363.5C 1362.5,364.003 1362.17,364.336 1356.5,364.5C 1356.5,362.833 1356.5,361.167 1356.5,359.5 Z"/></g>
<g><path style="opacity:1" fill="#725080" d="M 294.5,362.5 C 295.542,361.209 296.708,361.209 298,362.5C 298.667,364.833 298.667,367.167 298,369.5C 297.667,367.5 297.333,365.5 297,363.5C 296.329,362.748 295.496,362.414 294.5,362.5 Z"/></g>
<g><path style="opacity:1" fill="#b6b5c4" d="M 302.5,361.5 C 303.93,361.421 305.264,361.754 306.5,362.5C 307.1,364.576 307.433,366.576 307.5,368.5C 305.647,369.76 303.814,369.76 302,368.5C 301.444,366.115 301.61,363.782 302.5,361.5 Z"/></g>
<g><path style="opacity:1" fill="#796c86" d="M 772.5,363.5 C 776.677,362.842 778.177,364.508 777,368.5C 776.257,366.068 774.757,364.401 772.5,363.5 Z"/></g>
<g><path style="opacity:1" fill="#486196" d="M 794.5,362.5 C 795.239,362.369 795.906,362.536 796.5,363C 794.682,366.387 795.682,368.387 799.5,369C 798.207,369.49 796.873,369.657 795.5,369.5C 795.657,370.873 795.49,372.207 795,373.5C 794.501,369.848 794.335,366.182 794.5,362.5 Z"/></g>
<g><path style="opacity:1" fill="#486196" d="M 812.5,362.5 C 813.239,362.369 813.906,362.536 814.5,363C 812.682,366.387 813.682,368.387 817.5,369C 816.207,369.49 814.873,369.657 813.5,369.5C 813.657,370.873 813.49,372.207 813,373.5C 812.501,369.848 812.335,366.182 812.5,362.5 Z"/></g>
<g><path style="opacity:1" fill="#897d8c" d="M 1276.5,363.5 C 1280.48,363.629 1281.82,365.463 1280.5,369C 1278.83,369.667 1277.17,369.667 1275.5,369C 1276.79,368.51 1278.13,368.343 1279.5,368.5C 1279.5,367.5 1279.5,366.5 1279.5,365.5C 1277.82,365.715 1276.82,365.048 1276.5,363.5 Z"/></g>
<g><path style="opacity:1" fill="#4181c2" d="M 294.5,362.5 C 293.79,364.746 293.29,367.08 293,369.5C 292.833,368.333 292.667,367.167 292.5,366C 292.608,364.319 293.275,363.152 294.5,362.5 Z"/></g>
<g><path style="opacity:1" fill="#766c7e" d="M 351.5,365.5 C 352.721,364.535 354.054,364.702 355.5,366C 356.451,366.718 356.617,367.551 356,368.5C 354.612,369.554 353.112,369.72 351.5,369C 355.333,367.977 355.333,366.81 351.5,365.5 Z"/></g>
<g><path style="opacity:1" fill="#766c7e" d="M 364.5,365.5 C 365.721,364.535 367.054,364.702 368.5,366C 369.451,366.718 369.617,367.551 369,368.5C 367.612,369.554 366.112,369.72 364.5,369C 368.333,367.977 368.333,366.81 364.5,365.5 Z"/></g>
<g><path style="opacity:1" fill="#956459" d="M 278.5,361.5 C 279.634,363.966 279.801,366.633 279,369.5C 278.5,369 278,368.5 277.5,368C 278.423,365.959 278.756,363.792 278.5,361.5 Z"/></g>
<g><path style="opacity:1" fill="#ac7b5c" d="M 785.5,369.5 C 785.5,368.833 785.167,368.5 784.5,368.5C 785.21,366.254 785.71,363.92 786,361.5C 786.801,364.367 786.634,367.034 785.5,369.5 Z"/></g>
<g><path style="opacity:1" fill="#7f7a93" d="M 287.5,362.5 C 288.117,362.611 288.617,362.944 289,363.5C 289.495,365.473 289.662,367.473 289.5,369.5C 287.473,369.662 285.473,369.495 283.5,369C 282.179,367.455 282.512,366.289 284.5,365.5C 285.506,365.938 285.506,366.604 284.5,367.5C 285.325,368.386 286.325,368.719 287.5,368.5C 287.5,366.5 287.5,364.5 287.5,362.5 Z"/></g>
<g><path style="opacity:1" fill="#7f7a93" d="M 326.5,362.5 C 327.117,362.611 327.617,362.944 328,363.5C 328.495,365.473 328.662,367.473 328.5,369.5C 326.473,369.662 324.473,369.495 322.5,369C 321.179,367.455 321.512,366.289 323.5,365.5C 324.506,365.938 324.506,366.604 323.5,367.5C 324.325,368.386 325.325,368.719 326.5,368.5C 326.5,366.5 326.5,364.5 326.5,362.5 Z"/></g>
<g><path style="opacity:1" fill="#756d84" d="M 807.5,362.5 C 809.344,364.279 810.01,366.612 809.5,369.5C 807.5,369.5 805.5,369.5 803.5,369.5C 803.238,368.022 803.571,366.689 804.5,365.5C 805.506,365.938 805.506,366.604 804.5,367.5C 805.5,368.833 806.5,368.833 807.5,367.5C 806.948,365.997 806.948,364.331 807.5,362.5 Z"/></g>
<g><path style="opacity:1" fill="#545972" d="M 1343.5,367.5 C 1343.21,368.649 1342.38,369.316 1341,369.5C 1340.17,369.333 1339.33,369.167 1338.5,369C 1340.25,368.648 1341.91,368.148 1343.5,367.5 Z"/></g>
<g><path style="opacity:1" fill="#625b6d" d="M 1355.5,366.5 C 1357.19,367.931 1359.19,368.764 1361.5,369C 1359.83,369.667 1358.17,369.667 1356.5,369C 1355.75,368.329 1355.41,367.496 1355.5,366.5 Z"/></g>
<g><path style="opacity:1" fill="#e4e6ea" d="M 249.5,391.5 C 798.167,391.5 1346.83,391.5 1895.5,391.5C 1895.5,409.833 1895.5,428.167 1895.5,446.5C 1346.83,446.5 798.167,446.5 249.5,446.5C 249.5,428.167 249.5,409.833 249.5,391.5 Z"/></g>
<g><path style="opacity:1" fill="#4573eb" d="M 1806.5,410.5 C 1810.48,410.629 1811.82,412.463 1810.5,416C 1806.97,415.645 1805.63,413.812 1806.5,410.5 Z"/></g>
<g><path style="opacity:1" fill="#6d6881" d="M 268.5,414.5 C 270.467,414.261 272.301,414.594 274,415.5C 274.777,418.429 274.61,421.263 273.5,424C 268.967,425.471 266.633,423.804 266.5,419C 266.519,417.167 267.185,415.667 268.5,414.5 Z"/></g>
<g><path style="opacity:1" fill="#495572" d="M 772.5,418.5 C 771.566,417.432 771.232,416.099 771.5,414.5C 777.167,414.664 777.5,414.997 772.5,415.5C 772.5,416.5 772.5,417.5 772.5,418.5 Z"/></g>
<g><path style="opacity:1" fill="#356aeb" d="M 1802.5,414.5 C 1805.52,414.364 1807.02,415.698 1807,418.5C 1804.5,421 1802,423.5 1799.5,426C 1798.21,426.49 1796.87,426.657 1795.5,426.5C 1795.34,424.801 1795.51,423.134 1796,421.5C 1798.37,419.297 1800.54,416.963 1802.5,414.5 Z"/></g>
<g><path style="opacity:1" fill="#dd3b3a" d="M 1860.5,408.5 C 1863.08,409.728 1865.41,411.395 1867.5,413.5C 1875.5,406.833 1876.17,407.5 1869.5,415.5C 1876.17,423.5 1875.5,424.167 1867.5,417.5C 1859.5,424.167 1858.83,423.5 1865.5,415.5C 1863.4,413.408 1861.73,411.075 1860.5,408.5 Z"/></g>
<g><path style="opacity:1" fill="#e5e4e2" d="M 269.5,415.5 C 270.822,415.33 271.989,415.663 273,416.5C 273.667,418.5 273.667,420.5 273,422.5C 271.667,423.833 270.333,423.833 269,422.5C 268.297,420.071 268.463,417.738 269.5,415.5 Z"/></g>
<g><path style="opacity:1" fill="#6b6589" d="M 385.5,418.5 C 384.778,418.082 384.278,417.416 384,416.5C 383.722,417.416 383.222,418.082 382.5,418.5C 382.238,417.022 382.571,415.689 383.5,414.5C 385.111,415.32 385.778,416.654 385.5,418.5 Z"/></g>
<g><path style="opacity:1" fill="#7c4876" d="M 312.5,414.5 C 313.995,414.415 314.995,415.081 315.5,416.5C 315.154,417.696 314.654,417.696 314,416.5C 313.667,419.167 313.333,421.833 313,424.5C 312.502,421.183 312.335,417.85 312.5,414.5 Z"/></g>
<g><path style="opacity:1" fill="#794351" d="M 320.5,414.5 C 321.777,415.694 322.444,417.36 322.5,419.5C 322.333,421.167 322.167,422.833 322,424.5C 321.661,421.12 321.161,417.787 320.5,414.5 Z"/></g>
<g><path style="opacity:1" fill="#876f81" d="M 1291.5,416.5 C 1294.07,416.156 1296.74,416.656 1299.5,418C 1298.89,420.147 1298.22,422.314 1297.5,424.5C 1295.8,415.36 1293.96,415.36 1292,424.5C 1291.5,421.854 1291.34,419.187 1291.5,416.5 Z"/></g>
<g><path style="opacity:1" fill="#856e78" d="M 1317.5,417.5 C 1320.02,417.508 1322.69,417.341 1325.5,417C 1327.62,419.218 1327.95,421.718 1326.5,424.5C 1324.8,415.36 1322.96,415.36 1321,424.5C 1320.67,422.5 1320.33,420.5 1320,418.5C 1319.33,417.748 1318.5,417.414 1317.5,417.5 Z"/></g>
<g><path style="opacity:1" fill="#8f8a9b" d="M 334.5,416.5 C 336.062,418.372 337.062,420.705 337.5,423.5C 338.086,423.291 338.586,422.957 339,422.5C 339.333,420.5 339.667,418.5 340,416.5C 340.497,419.146 340.664,421.813 340.5,424.5C 335.18,424.574 333.18,421.907 334.5,416.5 Z"/></g>
<g><path style="opacity:1" fill="#6a7aa2" d="M 411.5,416.5 C 412.806,416.879 414.139,417.212 415.5,417.5C 414.675,418.386 413.675,418.719 412.5,418.5C 412.662,420.527 412.495,422.527 412,424.5C 411.503,421.854 411.336,419.187 411.5,416.5 Z"/></g>
<g><path style="opacity:1" fill="#8f8a9b" d="M 780.5,416.5 C 782.062,418.372 783.062,420.705 783.5,423.5C 784.086,423.291 784.586,422.957 785,422.5C 785.333,420.5 785.667,418.5 786,416.5C 786.497,419.146 786.664,421.813 786.5,424.5C 781.18,424.574 779.18,421.907 780.5,416.5 Z"/></g>
<g><path style="opacity:1" fill="#a8a6b2" d="M 286.5,416.5 C 289.099,416.549 291.266,417.549 293,419.5C 293.949,416.8 295.783,415.967 298.5,417C 300.619,419.218 300.952,421.718 299.5,424.5C 298.614,423.675 298.281,422.675 298.5,421.5C 295.282,421.651 294.949,422.484 297.5,424C 295.018,424.677 293.185,423.844 292,421.5C 291.051,424.2 289.217,425.033 286.5,424C 285.351,421.541 285.351,419.041 286.5,416.5 Z"/></g>
<g><path style="opacity:1" fill="#9e9aa9" d="M 326.5,416.5 C 332.191,416.548 333.857,419.215 331.5,424.5C 330.614,423.675 330.281,422.675 330.5,421.5C 327.282,421.651 326.949,422.484 329.5,424C 325.357,424.38 324.69,423.047 327.5,420C 325.273,419.296 324.94,418.129 326.5,416.5 Z"/></g>
<g><path style="opacity:1" fill="#5784bb" d="M 437.5,415.5 C 438.043,415.56 438.376,415.893 438.5,416.5C 437.811,418.444 437.311,420.444 437,422.5C 436.297,420.071 436.463,417.738 437.5,415.5 Z"/></g>
<g><path style="opacity:1" fill="#968593" d="M 822.5,416.5 C 826.24,415.741 827.907,417.241 827.5,421C 827.333,422.167 827.167,423.333 827,424.5C 825.374,424.146 823.541,424.146 821.5,424.5C 821.238,423.022 821.571,421.689 822.5,420.5C 823.425,419.359 824.259,419.359 825,420.5C 825.351,416.901 824.351,416.567 822,419.5C 821.53,418.423 821.697,417.423 822.5,416.5 Z"/></g>
<g><path style="opacity:1" fill="#8491b0" d="M 356.5,416.5 C 358.346,416.222 359.68,416.889 360.5,418.5C 359.431,418.36 358.264,418.36 357,418.5C 356.667,420.167 356.333,421.833 356,423.5C 354.03,421.037 354.196,418.703 356.5,416.5 Z"/></g>
<g><path style="opacity:1" fill="#8291b0" d="M 448.5,416.5 C 450.103,416.312 451.437,416.812 452.5,418C 451.175,417.852 450.008,418.018 449,418.5C 448.667,420.167 448.333,421.833 448,423.5C 446.03,421.037 446.196,418.703 448.5,416.5 Z"/></g>
<g><path style="opacity:1" fill="#4c669d" d="M 463.5,417.5 C 462.79,419.746 462.29,422.08 462,424.5C 461.764,422.236 461.264,420.069 460.5,418C 461.448,417.517 462.448,417.351 463.5,417.5 Z"/></g>
<g><path style="opacity:1" fill="#6a4f7a" d="M 463.5,417.5 C 464.542,416.209 465.708,416.209 467,417.5C 467.667,419.833 467.667,422.167 467,424.5C 466.667,422.5 466.333,420.5 466,418.5C 465.329,417.748 464.496,417.414 463.5,417.5 Z"/></g>
<g><path style="opacity:1" fill="#a6a9b9" d="M 471.5,416.5 C 472.93,416.421 474.264,416.754 475.5,417.5C 477.831,422.947 476.331,424.947 471,423.5C 470.297,421.071 470.463,418.738 471.5,416.5 Z"/></g>
<g><path style="opacity:1" fill="#706780" d="M 772.5,418.5 C 776.677,417.842 778.177,419.508 777,423.5C 776.257,421.068 774.757,419.401 772.5,418.5 Z"/></g>
<g><path style="opacity:1" fill="#455c8e" d="M 794.5,417.5 C 795.239,417.369 795.906,417.536 796.5,418C 794.682,421.387 795.682,423.387 799.5,424C 798.207,424.49 796.873,424.657 795.5,424.5C 795.657,425.873 795.49,427.207 795,428.5C 794.501,424.848 794.335,421.182 794.5,417.5 Z"/></g>
<g><path style="opacity:1" fill="#455c8e" d="M 812.5,417.5 C 813.239,417.369 813.906,417.536 814.5,418C 812.682,421.387 813.682,423.387 817.5,424C 816.207,424.49 814.873,424.657 813.5,424.5C 813.657,425.873 813.49,427.207 813,428.5C 812.501,424.848 812.335,421.182 812.5,417.5 Z"/></g>
<g><path style="opacity:1" fill="#8291b0" d="M 1280.5,416.5 C 1282.1,416.312 1283.44,416.812 1284.5,418C 1283.18,417.852 1282.01,418.018 1281,418.5C 1280.67,420.167 1280.33,421.833 1280,423.5C 1278.03,421.037 1278.2,418.703 1280.5,416.5 Z"/></g>
<g><path style="opacity:1" fill="#3f79b5" d="M 303.5,417.5 C 304.239,417.369 304.906,417.536 305.5,418C 304.736,420.069 304.236,422.236 304,424.5C 303.503,422.19 303.337,419.857 303.5,417.5 Z"/></g>
<g><path style="opacity:1" fill="#9392a5" d="M 385.5,418.5 C 386.905,420.225 387.405,422.225 387,424.5C 384.916,421.967 382.916,421.967 381,424.5C 380.595,422.225 381.095,420.225 382.5,418.5C 383.222,418.082 383.722,417.416 384,416.5C 384.278,417.416 384.778,418.082 385.5,418.5 Z"/></g>
<g><path style="opacity:1" fill="#3e609f" d="M 1317.5,417.5 C 1316.79,419.746 1316.29,422.08 1316,424.5C 1315.33,421.833 1315.33,419.167 1316,416.5C 1316.38,417.056 1316.88,417.389 1317.5,417.5 Z"/></g>
<g><path style="opacity:1" fill="#6e4f52" d="M 440.5,420.5 C 441.209,419.596 442.209,419.263 443.5,419.5C 443.66,421.199 443.494,422.866 443,424.5C 441.312,423.675 441.145,422.675 442.5,421.5C 442.043,420.702 441.376,420.369 440.5,420.5 Z"/></g>
<g><path style="opacity:1" fill="#6d677e" d="M 406.5,417.5 C 408.344,419.279 409.01,421.612 408.5,424.5C 406.5,424.5 404.5,424.5 402.5,424.5C 402.238,423.022 402.571,421.689 403.5,420.5C 404.506,420.938 404.506,421.604 403.5,422.5C 404.5,423.833 405.5,423.833 406.5,422.5C 405.948,420.997 405.948,419.331 406.5,417.5 Z"/></g>
<g><path style="opacity:1" fill="#575a75" d="M 427.5,419.5 C 428.645,420.793 428.311,421.959 426.5,423C 427.833,423.333 429.167,423.667 430.5,424C 424.222,425.152 423.222,423.652 427.5,419.5 Z"/></g>
<g><path style="opacity:1" fill="#3b4155" d="M 478.5,422.5 C 480.086,423.148 481.753,423.648 483.5,424C 482.667,424.167 481.833,424.333 481,424.5C 479.624,424.316 478.791,423.649 478.5,422.5 Z"/></g>
<g><path style="opacity:1" fill="#6d677e" d="M 807.5,417.5 C 809.344,419.279 810.01,421.612 809.5,424.5C 807.5,424.5 805.5,424.5 803.5,424.5C 803.238,423.022 803.571,421.689 804.5,420.5C 805.506,420.938 805.506,421.604 804.5,422.5C 805.5,423.833 806.5,423.833 807.5,422.5C 806.948,420.997 806.948,419.331 807.5,417.5 Z"/></g>
<g><path style="opacity:1" fill="#6d677e" d="M 1310.5,417.5 C 1312.34,419.279 1313.01,421.612 1312.5,424.5C 1310.5,424.5 1308.5,424.5 1306.5,424.5C 1306.24,423.022 1306.57,421.689 1307.5,420.5C 1308.51,420.938 1308.51,421.604 1307.5,422.5C 1308.5,423.833 1309.5,423.833 1310.5,422.5C 1309.95,420.997 1309.95,419.331 1310.5,417.5 Z"/></g>
<g><path style="opacity:1" fill="#75738c" d="M 1334.5,417.5 C 1335.12,417.611 1335.62,417.944 1336,418.5C 1336.5,420.473 1336.66,422.473 1336.5,424.5C 1334.47,424.662 1332.47,424.495 1330.5,424C 1329.18,422.455 1329.51,421.289 1331.5,420.5C 1332.51,420.938 1332.51,421.604 1331.5,422.5C 1332.32,423.386 1333.32,423.719 1334.5,423.5C 1334.5,421.5 1334.5,419.5 1334.5,417.5 Z"/></g>
<g><path style="opacity:1" fill="#fefefe" d="M 249.5,446.5 C 798.167,446.5 1346.83,446.5 1895.5,446.5C 1895.5,464.833 1895.5,483.167 1895.5,501.5C 1346.83,501.5 798.167,501.5 249.5,501.5C 249.5,483.167 249.5,464.833 249.5,446.5 Z"/></g>
<g><path style="opacity:1" fill="#4976ed" d="M 1806.5,465.5 C 1810.48,465.629 1811.82,467.463 1810.5,471C 1806.97,470.645 1805.63,468.812 1806.5,465.5 Z"/></g>
<g><path style="opacity:1" fill="#50526d" d="M 1301.5,470.5 C 1303.69,469.203 1306.03,469.203 1308.5,470.5C 1308.19,471.308 1307.69,471.975 1307,472.5C 1305.6,470.808 1303.77,470.141 1301.5,470.5 Z"/></g>
<g><path style="opacity:1" fill="#376bec" d="M 1802.5,469.5 C 1805.52,469.364 1807.02,470.698 1807,473.5C 1804.5,476 1802,478.5 1799.5,481C 1798.21,481.49 1796.87,481.657 1795.5,481.5C 1795.34,479.801 1795.51,478.134 1796,476.5C 1798.37,474.297 1800.54,471.963 1802.5,469.5 Z"/></g>
<g><path style="opacity:1" fill="#df3e3c" d="M 1860.5,463.5 C 1863.08,464.728 1865.41,466.395 1867.5,468.5C 1875.5,461.833 1876.17,462.5 1869.5,470.5C 1876.17,478.5 1875.5,479.167 1867.5,472.5C 1859.5,479.167 1858.83,478.5 1865.5,470.5C 1863.4,468.408 1861.73,466.075 1860.5,463.5 Z"/></g>
<g><path style="opacity:1" fill="#8d899f" d="M 288.5,474.5 C 287.77,472.955 286.437,472.122 284.5,472C 286.579,471.192 288.579,471.359 290.5,472.5C 290.145,473.522 289.478,474.189 288.5,474.5 Z"/></g>
<g><path style="opacity:1" fill="#937488" d="M 325.5,468.5 C 326.29,469.609 326.79,470.942 327,472.5C 328.938,471.14 330.604,471.473 332,473.5C 332.808,475.579 332.641,477.579 331.5,479.5C 329.841,470.312 328.008,470.312 326,479.5C 325.501,475.848 325.335,472.182 325.5,468.5 Z"/></g>
<g><path style="opacity:1" fill="#8e858d" d="M 1294.5,469.5 C 1298.68,468.842 1300.18,470.508 1299,474.5C 1297.69,475.772 1296.19,476.772 1294.5,477.5C 1300.96,478.97 1300.63,479.637 1293.5,479.5C 1293.24,478.022 1293.57,476.689 1294.5,475.5C 1297.15,474.543 1297.82,472.876 1296.5,470.5C 1293.8,473.392 1293.13,473.058 1294.5,469.5 Z"/></g>
<g><path style="opacity:1" fill="#d69e75" d="M 1319.5,469.5 C 1320.64,472.64 1320.81,475.973 1320,479.5C 1319.78,476.574 1319.28,473.74 1318.5,471C 1319.06,470.617 1319.39,470.117 1319.5,469.5 Z"/></g>
<g><path style="opacity:1" fill="#845863" d="M 1347.5,470.5 C 1344.61,470.22 1343.11,471.553 1343,474.5C 1342.01,469.985 1343.51,468.651 1347.5,470.5 Z"/></g>
<g><path style="opacity:1" fill="#614c6f" d="M 1352.5,469.5 C 1354.53,469.338 1356.53,469.505 1358.5,470C 1356.87,470.494 1355.2,470.66 1353.5,470.5C 1353.5,471.5 1353.5,472.5 1353.5,473.5C 1358.5,474.003 1358.17,474.336 1352.5,474.5C 1352.5,472.833 1352.5,471.167 1352.5,469.5 Z"/></g>
<g><path style="opacity:1" fill="#aea7b4" d="M 293.5,471.5 C 299.191,471.548 300.857,474.215 298.5,479.5C 297.614,478.675 297.281,477.675 297.5,476.5C 294.282,476.651 293.949,477.484 296.5,479C 292.357,479.38 291.69,478.047 294.5,475C 292.273,474.296 291.94,473.129 293.5,471.5 Z"/></g>
<g><path style="opacity:1" fill="#fbefe5" d="M 307.5,473.5 C 308.244,476.95 306.91,478.616 303.5,478.5C 303.34,476.801 303.506,475.134 304,473.5C 304.986,472.829 306.153,472.829 307.5,473.5 Z"/></g>
<g><path style="opacity:1" fill="#a86a56" d="M 319.5,469.5 C 320.638,472.304 320.805,475.304 320,478.5C 319.122,475.356 318.955,472.356 319.5,469.5 Z"/></g>
<g><path style="opacity:1" fill="#7889ab" d="M 772.5,469.5 C 777.539,469.451 777.705,470.118 773,471.5C 772.242,473.769 772.409,475.936 773.5,478C 775.367,478.711 776.867,478.211 778,476.5C 778.617,477.449 778.451,478.282 777.5,479C 772.967,480.471 770.633,478.804 770.5,474C 770.519,472.167 771.185,470.667 772.5,469.5 Z"/></g>
<g><path style="opacity:1" fill="#59698b" d="M 816.5,477.5 C 815.952,474.916 814.285,473.916 811.5,474.5C 811.5,472.833 811.5,471.167 811.5,469.5C 817.167,469.664 817.5,469.997 812.5,470.5C 812.5,471.5 812.5,472.5 812.5,473.5C 816.517,472.839 817.851,474.172 816.5,477.5 Z"/></g>
<g><path style="opacity:1" fill="#696094" d="M 824.5,471.5 C 824.56,470.957 824.893,470.624 825.5,470.5C 826.652,473.106 826.818,475.773 826,478.5C 824.612,479.554 823.112,479.72 821.5,479C 822.766,478.691 823.933,478.191 825,477.5C 825.789,475.288 825.622,473.288 824.5,471.5 Z"/></g>
<g><path style="opacity:1" fill="#6074a5" d="M 1329.5,470.5 C 1330.75,471.334 1331.41,472.667 1331.5,474.5C 1331.9,479.069 1329.9,480.569 1325.5,479C 1324.39,476.263 1324.22,473.429 1325,470.5C 1326.62,469.199 1328.12,469.199 1329.5,470.5 Z"/></g>
<g><path style="opacity:1" fill="#fcf0e6" d="M 1329.5,470.5 C 1330.54,472.738 1330.7,475.071 1330,477.5C 1328.67,478.833 1327.33,478.833 1326,477.5C 1325.33,475.5 1325.33,473.5 1326,471.5C 1327.01,470.663 1328.18,470.33 1329.5,470.5 Z"/></g>
<g><path style="opacity:1" fill="#52516f" d="M 1334.5,469.5 C 1340.17,469.664 1340.5,469.997 1335.5,470.5C 1335.5,471.5 1335.5,472.5 1335.5,473.5C 1340.5,474.003 1340.17,474.336 1334.5,474.5C 1334.5,472.833 1334.5,471.167 1334.5,469.5 Z"/></g>
<g><path style="opacity:1" fill="#3a5582" d="M 267.5,469.5 C 269.527,469.338 271.527,469.505 273.5,470C 271.866,470.494 270.199,470.66 268.5,470.5C 268.5,473.167 268.5,475.833 268.5,478.5C 270.199,478.34 271.866,478.506 273.5,479C 271.527,479.495 269.527,479.662 267.5,479.5C 267.5,476.167 267.5,472.833 267.5,469.5 Z"/></g>
<g><path style="opacity:1" fill="#9991a5" d="M 307.5,473.5 C 306.153,472.829 304.986,472.829 304,473.5C 303.506,475.134 303.34,476.801 303.5,478.5C 302.883,478.611 302.383,478.944 302,479.5C 301.175,475.789 301.341,472.122 302.5,468.5C 303.386,469.325 303.719,470.325 303.5,471.5C 305.38,471.229 306.713,471.896 307.5,473.5 Z"/></g>
<g><path style="opacity:1" fill="#b7b7c6" d="M 799.5,471.5 C 800.93,471.421 802.264,471.754 803.5,472.5C 804.363,474.771 804.363,477.105 803.5,479.5C 801.856,479.714 800.356,479.38 799,478.5C 798.297,476.071 798.463,473.738 799.5,471.5 Z"/></g>
<g><path style="opacity:1" fill="#897d8c" d="M 1276.5,473.5 C 1280.48,473.629 1281.82,475.463 1280.5,479C 1278.83,479.667 1277.17,479.667 1275.5,479C 1276.79,478.51 1278.13,478.343 1279.5,478.5C 1279.5,477.5 1279.5,476.5 1279.5,475.5C 1277.82,475.715 1276.82,475.048 1276.5,473.5 Z"/></g>
<g><path style="opacity:1" fill="#61679f" d="M 1304.5,476.5 C 1304.46,475.244 1304.96,474.244 1306,473.5C 1306.58,474.998 1306.08,475.998 1304.5,476.5 Z"/></g>
<g><path style="opacity:1" fill="#c0c5d5" d="M 312.5,471.5 C 317.262,472.092 318.596,474.592 316.5,479C 310.403,479.147 309.07,476.647 312.5,471.5 Z"/></g>
<g><path style="opacity:1" fill="#556ca3" d="M 1313.5,469.5 C 1314.78,470.694 1315.44,472.36 1315.5,474.5C 1315.33,476.167 1315.17,477.833 1315,479.5C 1314.67,476.833 1314.33,474.167 1314,471.5C 1313.3,473.762 1312.13,474.762 1310.5,474.5C 1311.76,472.971 1312.76,471.305 1313.5,469.5 Z"/></g>
<g><path style="opacity:1" fill="#5c5d79" d="M 288.5,474.5 C 288.489,476.017 287.823,477.184 286.5,478C 287.833,478.333 289.167,478.667 290.5,479C 283.399,479.942 282.732,478.442 288.5,474.5 Z"/></g>
<g><path style="opacity:1" fill="#616e9d" d="M 307.5,473.5 C 308.613,474.946 308.78,476.613 308,478.5C 306.384,479.801 304.884,479.801 303.5,478.5C 306.91,478.616 308.244,476.95 307.5,473.5 Z"/></g>
<g><path style="opacity:1" fill="#545972" d="M 816.5,477.5 C 816.209,478.649 815.376,479.316 814,479.5C 813.167,479.333 812.333,479.167 811.5,479C 813.247,478.648 814.914,478.148 816.5,477.5 Z"/></g>
<g><path style="opacity:1" fill="#71566a" d="M 1304.5,476.5 C 1304.54,477.756 1304.04,478.756 1303,479.5C 1302.42,478.002 1302.92,477.002 1304.5,476.5 Z"/></g>
<g><path style="opacity:1" fill="#625b6d" d="M 1333.5,476.5 C 1335.19,477.931 1337.19,478.764 1339.5,479C 1337.83,479.667 1336.17,479.667 1334.5,479C 1333.75,478.329 1333.41,477.496 1333.5,476.5 Z"/></g>
<g><path style="opacity:1" fill="#807590" d="M 1347.5,470.5 C 1348.12,470.611 1348.62,470.944 1349,471.5C 1351.04,477.187 1349.2,479.854 1343.5,479.5C 1343.27,475.944 1344.11,475.61 1346,478.5C 1348.19,477.941 1348.85,476.607 1348,474.5C 1346.82,475.731 1345.65,475.731 1344.5,474.5C 1345.32,473.614 1346.32,473.281 1347.5,473.5C 1347.5,472.5 1347.5,471.5 1347.5,470.5 Z"/></g>
<g><path style="opacity:1" fill="#e4e6ea" d="M 249.5,501.5 C 798.167,501.5 1346.83,501.5 1895.5,501.5C 1895.5,519.833 1895.5,538.167 1895.5,556.5C 1346.83,556.5 798.167,556.5 249.5,556.5C 249.5,538.167 249.5,519.833 249.5,501.5 Z"/></g>
<g><path style="opacity:1" fill="#4573eb" d="M 1806.5,520.5 C 1810.48,520.629 1811.82,522.463 1810.5,526C 1806.97,525.645 1805.63,523.812 1806.5,520.5 Z"/></g>
<g><path style="opacity:1" fill="#6d6881" d="M 268.5,524.5 C 270.467,524.261 272.301,524.594 274,525.5C 274.777,528.429 274.61,531.263 273.5,534C 268.967,535.471 266.633,533.804 266.5,529C 266.519,527.167 267.185,525.667 268.5,524.5 Z"/></g>
<g><path style="opacity:1" fill="#846469" d="M 814.5,525.5 C 816.722,525.559 817.722,526.725 817.5,529C 817.089,533.929 814.422,535.762 809.5,534.5C 809.5,531.167 809.5,527.833 809.5,524.5C 811.415,524.216 813.081,524.549 814.5,525.5 Z"/></g>
<g><path style="opacity:1" fill="#4d506a" d="M 1301.5,525.5 C 1303.69,524.203 1306.03,524.203 1308.5,525.5C 1308.19,526.308 1307.69,526.975 1307,527.5C 1305.6,525.808 1303.77,525.141 1301.5,525.5 Z"/></g>
<g><path style="opacity:1" fill="#5a7da9" d="M 1419.5,534.5 C 1419.84,531.347 1419.51,529.013 1418.5,527.5C 1417.26,526.257 1417.6,525.257 1419.5,524.5C 1420.12,527.032 1421.12,529.365 1422.5,531.5C 1421.45,532.548 1420.45,533.548 1419.5,534.5 Z"/></g>
<g><path style="opacity:1" fill="#5a7da9" d="M 1427.5,524.5 C 1429,526.562 1430.33,528.895 1431.5,531.5C 1430.48,532.354 1429.64,533.354 1429,534.5C 1428.67,531.833 1428.33,529.167 1428,526.5C 1427.35,527.696 1426.85,527.696 1426.5,526.5C 1426.86,525.817 1427.2,525.15 1427.5,524.5 Z"/></g>
<g><path style="opacity:1" fill="#5a7da9" d="M 1436.5,524.5 C 1438,526.562 1439.33,528.895 1440.5,531.5C 1439.48,532.354 1438.64,533.354 1438,534.5C 1437.67,531.833 1437.33,529.167 1437,526.5C 1436.35,527.696 1435.85,527.696 1435.5,526.5C 1435.86,525.817 1436.2,525.15 1436.5,524.5 Z"/></g>
<g><path style="opacity:1" fill="#5a7da9" d="M 1445.5,524.5 C 1447,526.562 1448.33,528.895 1449.5,531.5C 1448.48,532.354 1447.64,533.354 1447,534.5C 1446.67,531.833 1446.33,529.167 1446,526.5C 1445.35,527.696 1444.85,527.696 1444.5,526.5C 1444.86,525.817 1445.2,525.15 1445.5,524.5 Z"/></g>
<g><path style="opacity:1" fill="#356aeb" d="M 1802.5,524.5 C 1805.52,524.364 1807.02,525.698 1807,528.5C 1804.5,531 1802,533.5 1799.5,536C 1798.21,536.49 1796.87,536.657 1795.5,536.5C 1795.34,534.801 1795.51,533.134 1796,531.5C 1798.37,529.297 1800.54,526.963 1802.5,524.5 Z"/></g>
<g><path style="opacity:1" fill="#dd3b3a" d="M 1860.5,518.5 C 1863.08,519.728 1865.41,521.395 1867.5,523.5C 1875.5,516.833 1876.17,517.5 1869.5,525.5C 1876.17,533.5 1875.5,534.167 1867.5,527.5C 1859.5,534.167 1858.83,533.5 1865.5,525.5C 1863.4,523.408 1861.73,521.075 1860.5,518.5 Z"/></g>
<g><path style="opacity:1" fill="#e5e4e2" d="M 269.5,525.5 C 270.822,525.33 271.989,525.663 273,526.5C 273.667,528.5 273.667,530.5 273,532.5C 271.667,533.833 270.333,533.833 269,532.5C 268.297,530.071 268.463,527.738 269.5,525.5 Z"/></g>
<g><path style="opacity:1" fill="#6b6589" d="M 385.5,528.5 C 384.778,528.082 384.278,527.416 384,526.5C 383.722,527.416 383.222,528.082 382.5,528.5C 382.238,527.022 382.571,525.689 383.5,524.5C 385.111,525.32 385.778,526.654 385.5,528.5 Z"/></g>
<g><path style="opacity:1" fill="#594264" d="M 436.5,524.5 C 442.167,524.664 442.5,524.997 437.5,525.5C 437.5,526.833 437.5,528.167 437.5,529.5C 442.833,529.833 442.833,530.167 437.5,530.5C 437.657,531.873 437.49,533.207 437,534.5C 436.502,531.183 436.335,527.85 436.5,524.5 Z"/></g>
<g><path style="opacity:1" fill="#69637e" d="M 775.5,527.5 C 774.175,526.047 773.342,526.381 773,528.5C 772.51,527.207 772.343,525.873 772.5,524.5C 773.5,524.5 774.5,524.5 775.5,524.5C 775.5,525.5 775.5,526.5 775.5,527.5 Z"/></g>
<g><path style="opacity:1" fill="#3d5888" d="M 780.5,524.5 C 786.167,524.664 786.5,524.997 781.5,525.5C 781.5,528.167 781.5,530.833 781.5,533.5C 786.5,534.003 786.167,534.336 780.5,534.5C 780.5,531.167 780.5,527.833 780.5,524.5 Z"/></g>
<g><path style="opacity:1" fill="#d5dbe4" d="M 814.5,525.5 C 815.537,527.738 815.703,530.071 815,532.5C 813.644,533.38 812.144,533.714 810.5,533.5C 810.5,530.833 810.5,528.167 810.5,525.5C 811.833,525.5 813.167,525.5 814.5,525.5 Z"/></g>
<g><path style="opacity:1" fill="#7c4876" d="M 312.5,524.5 C 313.995,524.415 314.995,525.081 315.5,526.5C 315.154,527.696 314.654,527.696 314,526.5C 313.667,529.167 313.333,531.833 313,534.5C 312.502,531.183 312.335,527.85 312.5,524.5 Z"/></g>
<g><path style="opacity:1" fill="#794351" d="M 320.5,524.5 C 321.777,525.694 322.444,527.36 322.5,529.5C 322.333,531.167 322.167,532.833 322,534.5C 321.661,531.12 321.161,527.787 320.5,524.5 Z"/></g>
<g><path style="opacity:1" fill="#6b586e" d="M 794.5,529.5 C 790.839,529.65 789.839,528.15 791.5,525C 793.259,524.202 794.926,524.369 796.5,525.5C 794.86,525.153 793.193,525.653 791.5,527C 792.571,527.852 793.571,528.685 794.5,529.5 Z"/></g>
<g><path style="opacity:1" fill="#837c86" d="M 1294.5,524.5 C 1298.68,523.842 1300.18,525.508 1299,529.5C 1297.69,530.772 1296.19,531.772 1294.5,532.5C 1300.96,533.97 1300.63,534.637 1293.5,534.5C 1293.24,533.022 1293.57,531.689 1294.5,530.5C 1297.15,529.543 1297.82,527.876 1296.5,525.5C 1293.8,528.392 1293.13,528.058 1294.5,524.5 Z"/></g>
<g><path style="opacity:1" fill="#8f8a9b" d="M 334.5,526.5 C 336.062,528.372 337.062,530.705 337.5,533.5C 338.086,533.291 338.586,532.957 339,532.5C 339.333,530.5 339.667,528.5 340,526.5C 340.497,529.146 340.664,531.813 340.5,534.5C 335.18,534.574 333.18,531.907 334.5,526.5 Z"/></g>
<g><path style="opacity:1" fill="#6a7aa2" d="M 411.5,526.5 C 412.806,526.879 414.139,527.212 415.5,527.5C 414.675,528.386 413.675,528.719 412.5,528.5C 412.662,530.527 412.495,532.527 412,534.5C 411.503,531.854 411.336,529.187 411.5,526.5 Z"/></g>
<g><path style="opacity:1" fill="#5b4b6c" d="M 1352.5,524.5 C 1354.53,524.338 1356.53,524.505 1358.5,525C 1356.87,525.494 1355.2,525.66 1353.5,525.5C 1353.5,526.5 1353.5,527.5 1353.5,528.5C 1358.5,529.003 1358.17,529.336 1352.5,529.5C 1352.5,527.833 1352.5,526.167 1352.5,524.5 Z"/></g>
<g><path style="opacity:1" fill="#a8a6b2" d="M 286.5,526.5 C 289.099,526.549 291.266,527.549 293,529.5C 293.949,526.8 295.783,525.967 298.5,527C 300.619,529.218 300.952,531.718 299.5,534.5C 298.614,533.675 298.281,532.675 298.5,531.5C 295.282,531.651 294.949,532.484 297.5,534C 295.018,534.677 293.185,533.844 292,531.5C 291.051,534.2 289.217,535.033 286.5,534C 285.351,531.541 285.351,529.041 286.5,526.5 Z"/></g>
<g><path style="opacity:1" fill="#9e9aa9" d="M 326.5,526.5 C 332.191,526.548 333.857,529.215 331.5,534.5C 330.614,533.675 330.281,532.675 330.5,531.5C 327.282,531.651 326.949,532.484 329.5,534C 325.357,534.38 324.69,533.047 327.5,530C 325.273,529.296 324.94,528.129 326.5,526.5 Z"/></g>
<g><path style="opacity:1" fill="#9e9aa9" d="M 450.5,526.5 C 456.191,526.548 457.857,529.215 455.5,534.5C 454.614,533.675 454.281,532.675 454.5,531.5C 451.282,531.651 450.949,532.484 453.5,534C 449.357,534.38 448.69,533.047 451.5,530C 449.273,529.296 448.94,528.129 450.5,526.5 Z"/></g>
<g><path style="opacity:1" fill="#b27f56" d="M 459.5,524.5 C 459.5,527.5 459.5,530.5 459.5,533.5C 458.784,531.444 458.117,529.277 457.5,527C 458.066,526.005 458.733,525.172 459.5,524.5 Z"/></g>
<g><path style="opacity:1" fill="#6789b8" d="M 459.5,524.5 C 460.309,525.469 461.309,526.302 462.5,527C 459.833,529.333 459.833,531.667 462.5,534C 461.251,534.74 460.251,534.573 459.5,533.5C 459.5,530.5 459.5,527.5 459.5,524.5 Z"/></g>
<g><path style="opacity:1" fill="#968593" d="M 465.5,526.5 C 469.24,525.741 470.907,527.241 470.5,531C 470.333,532.167 470.167,533.333 470,534.5C 468.374,534.146 466.541,534.146 464.5,534.5C 464.238,533.022 464.571,531.689 465.5,530.5C 466.425,529.359 467.259,529.359 468,530.5C 468.351,526.901 467.351,526.567 465,529.5C 464.53,528.423 464.697,527.423 465.5,526.5 Z"/></g>
<g><path style="opacity:1" fill="#7a91b6" d="M 1284.5,525.5 C 1285.31,527.631 1285.81,529.964 1286,532.5C 1287.07,533.191 1288.23,533.691 1289.5,534C 1285.71,535.052 1283.71,533.552 1283.5,529.5C 1283.85,528.151 1284.18,526.817 1284.5,525.5 Z"/></g>
<g><path style="opacity:1" fill="#646d96" d="M 1313.5,524.5 C 1314.78,525.694 1315.44,527.36 1315.5,529.5C 1315.33,531.167 1315.17,532.833 1315,534.5C 1314.67,531.833 1314.33,529.167 1314,526.5C 1313.3,528.762 1312.13,529.762 1310.5,529.5C 1311.76,527.971 1312.76,526.305 1313.5,524.5 Z"/></g>
<g><path style="opacity:1" fill="#5a6d9b" d="M 1329.5,525.5 C 1330.75,526.334 1331.41,527.667 1331.5,529.5C 1331.9,534.069 1329.9,535.569 1325.5,534C 1324.39,531.263 1324.22,528.429 1325,525.5C 1326.62,524.199 1328.12,524.199 1329.5,525.5 Z"/></g>
<g><path style="opacity:1" fill="#e2dbd6" d="M 1329.5,525.5 C 1330.54,527.738 1330.7,530.071 1330,532.5C 1328.67,533.833 1327.33,533.833 1326,532.5C 1325.33,530.5 1325.33,528.5 1326,526.5C 1327.01,525.663 1328.18,525.33 1329.5,525.5 Z"/></g>
<g><path style="opacity:1" fill="#4e4f6c" d="M 1334.5,524.5 C 1340.17,524.664 1340.5,524.997 1335.5,525.5C 1335.5,526.5 1335.5,527.5 1335.5,528.5C 1340.5,529.003 1340.17,529.336 1334.5,529.5C 1334.5,527.833 1334.5,526.167 1334.5,524.5 Z"/></g>
<g><path style="opacity:1" fill="#938d9c" d="M 1343.5,524.5 C 1347.58,524.081 1349.58,525.914 1349.5,530C 1349.57,533.992 1347.57,535.492 1343.5,534.5C 1343.27,530.944 1344.11,530.61 1346,533.5C 1348.19,532.941 1348.85,531.607 1348,529.5C 1343.32,530.832 1341.82,529.165 1343.5,524.5 Z"/></g>
<g><path style="opacity:1" fill="#71718d" d="M 1362.5,524.5 C 1363.87,524.343 1365.21,524.51 1366.5,525C 1361.01,526.87 1361.18,528.37 1367,529.5C 1367.67,530.833 1367.67,532.167 1367,533.5C 1365.33,528.167 1363.67,528.167 1362,533.5C 1360.03,530.384 1360.2,527.384 1362.5,524.5 Z"/></g>
<g><path style="opacity:1" fill="#646d96" d="M 1382.5,524.5 C 1383.78,525.694 1384.44,527.36 1384.5,529.5C 1384.33,531.167 1384.17,532.833 1384,534.5C 1383.67,531.833 1383.33,529.167 1383,526.5C 1382.3,528.762 1381.13,529.762 1379.5,529.5C 1380.76,527.971 1381.76,526.305 1382.5,524.5 Z"/></g>
<g><path style="opacity:1" fill="#646d96" d="M 1391.5,524.5 C 1392.78,525.694 1393.44,527.36 1393.5,529.5C 1393.33,531.167 1393.17,532.833 1393,534.5C 1392.67,531.833 1392.33,529.167 1392,526.5C 1391.3,528.762 1390.13,529.762 1388.5,529.5C 1389.76,527.971 1390.76,526.305 1391.5,524.5 Z"/></g>
<g><path style="opacity:1" fill="#646d96" d="M 1400.5,524.5 C 1401.78,525.694 1402.44,527.36 1402.5,529.5C 1402.33,531.167 1402.17,532.833 1402,534.5C 1401.67,531.833 1401.33,529.167 1401,526.5C 1400.3,528.762 1399.13,529.762 1397.5,529.5C 1398.76,527.971 1399.76,526.305 1400.5,524.5 Z"/></g>
<g><path style="opacity:1" fill="#646d96" d="M 1411.5,530.5 C 1411.5,531.167 1411.5,531.833 1411.5,532.5C 1410.45,532.084 1409.95,530.084 1410,526.5C 1409.3,528.762 1408.13,529.762 1406.5,529.5C 1409.88,522.623 1411.55,522.956 1411.5,530.5 Z"/></g>
<g><path style="opacity:1" fill="#8491b0" d="M 356.5,526.5 C 358.346,526.222 359.68,526.889 360.5,528.5C 359.431,528.36 358.264,528.36 357,528.5C 356.667,530.167 356.333,531.833 356,533.5C 354.03,531.037 354.196,528.703 356.5,526.5 Z"/></g>
<g><path style="opacity:1" fill="#8d869b" d="M 802.5,524.5 C 805.266,526.51 806.933,529.343 807.5,533C 807.167,533.5 806.833,534 806.5,534.5C 805.614,533.675 805.281,532.675 805.5,531.5C 804.167,531.5 802.833,531.5 801.5,531.5C 801.728,533.355 801.061,534.188 799.5,534C 801.223,531.057 802.223,527.89 802.5,524.5 Z"/></g>
<g><path style="opacity:1" fill="#7e7685" d="M 1276.5,528.5 C 1280.48,528.629 1281.82,530.463 1280.5,534C 1278.83,534.667 1277.17,534.667 1275.5,534C 1276.79,533.51 1278.13,533.343 1279.5,533.5C 1279.5,532.5 1279.5,531.5 1279.5,530.5C 1277.82,530.715 1276.82,530.048 1276.5,528.5 Z"/></g>
<g><path style="opacity:1" fill="#3f79b5" d="M 303.5,527.5 C 304.239,527.369 304.906,527.536 305.5,528C 304.736,530.069 304.236,532.236 304,534.5C 303.503,532.19 303.337,529.857 303.5,527.5 Z"/></g>
<g><path style="opacity:1" fill="#9392a5" d="M 385.5,528.5 C 386.905,530.225 387.405,532.225 387,534.5C 384.916,531.967 382.916,531.967 381,534.5C 380.595,532.225 381.095,530.225 382.5,528.5C 383.222,528.082 383.722,527.416 384,526.5C 384.278,527.416 384.778,528.082 385.5,528.5 Z"/></g>
<g><path style="opacity:1" fill="#90889a" d="M 775.5,527.5 C 777.105,529.308 777.439,531.308 776.5,533.5C 774.261,531.88 772.427,532.213 771,534.5C 770.202,532.741 770.369,531.074 771.5,529.5C 772.736,530.246 774.07,530.579 775.5,530.5C 775.5,529.5 775.5,528.5 775.5,527.5 Z"/></g>
<g><path style="opacity:1" fill="#7f6c86" d="M 1374.5,524.5 C 1375.09,526.907 1376.09,529.24 1377.5,531.5C 1376.48,532.354 1375.64,533.354 1375,534.5C 1373.47,533.08 1371.64,532.08 1369.5,531.5C 1369.81,530.692 1370.31,530.025 1371,529.5C 1371.71,530.973 1372.88,531.64 1374.5,531.5C 1374.15,528.959 1374.15,526.626 1374.5,524.5 Z"/></g>
<g><path style="opacity:1" fill="#a28e89" d="M 1419.5,534.5 C 1417.2,532.798 1414.53,532.132 1411.5,532.5C 1411.5,531.833 1411.5,531.167 1411.5,530.5C 1413.86,530.674 1416.19,531.007 1418.5,531.5C 1418.5,530.167 1418.5,528.833 1418.5,527.5C 1419.51,529.013 1419.84,531.347 1419.5,534.5 Z"/></g>
<g><path style="opacity:1" fill="#6d677e" d="M 406.5,527.5 C 408.344,529.279 409.01,531.612 408.5,534.5C 406.5,534.5 404.5,534.5 402.5,534.5C 402.238,533.022 402.571,531.689 403.5,530.5C 404.506,530.938 404.506,531.604 403.5,532.5C 404.5,533.833 405.5,533.833 406.5,532.5C 405.948,530.997 405.948,529.331 406.5,527.5 Z"/></g>
<g><path style="opacity:1" fill="#575a75" d="M 427.5,529.5 C 428.645,530.793 428.311,531.959 426.5,533C 427.833,533.333 429.167,533.667 430.5,534C 424.222,535.152 423.222,533.652 427.5,529.5 Z"/></g>
<g><path style="opacity:1" fill="#675d71" d="M 794.5,529.5 C 797.389,529.999 798.056,531.499 796.5,534C 794.044,534.946 792.044,534.446 790.5,532.5C 790.667,532.167 790.833,531.833 791,531.5C 792.11,533.037 793.61,533.703 795.5,533.5C 795.567,532.041 795.234,530.708 794.5,529.5 Z"/></g>
<g><path style="opacity:1" fill="#6f7299" d="M 1305.5,528.5 C 1306.04,528.56 1306.38,528.893 1306.5,529.5C 1305.32,531.046 1304.32,532.713 1303.5,534.5C 1303.17,534.167 1302.83,533.833 1302.5,533.5C 1303.26,531.64 1304.26,529.973 1305.5,528.5 Z"/></g>
<g><path style="opacity:1" fill="#5c586a" d="M 1333.5,531.5 C 1335.19,532.931 1337.19,533.764 1339.5,534C 1337.83,534.667 1336.17,534.667 1334.5,534C 1333.75,533.329 1333.41,532.496 1333.5,531.5 Z"/></g>
<g><path style="opacity:1" fill="#1b47ee" d="M -0.5,907.5 C 74.8333,907.5 150.167,907.5 225.5,907.5C 225.5,926.167 225.5,944.833 225.5,963.5C 150.167,963.5 74.8333,963.5 -0.5,963.5C -0.5,944.833 -0.5,926.167 -0.5,907.5 Z"/></g>
<g><path style="opacity:1" fill="#f1f3fe" d="M 46.5,928.5 C 55.8746,927.033 59.3746,930.7 57,939.5C 52.5847,944.726 48.2514,944.726 44,939.5C 41.5841,935.078 42.4175,931.411 46.5,928.5 Z"/></g>
<g><path style="opacity:1" fill="#d0e1fa" d="M 71.5,930.5 C 73.22,932.658 74.0533,935.325 74,938.5C 75.3333,939.833 76.6667,939.833 78,938.5C 78.1816,935.774 78.6816,933.107 79.5,930.5C 80.7485,933.506 80.7485,936.506 79.5,939.5C 76.7185,940.952 74.2185,940.619 72,938.5C 71.5026,935.854 71.3359,933.187 71.5,930.5 Z"/></g>
<g><path style="opacity:1" fill="#e4ecfc" d="M 155.5,930.5 C 157.792,930.244 159.959,930.577 162,931.5C 163.177,935.492 161.677,937.158 157.5,936.5C 157.762,937.978 157.429,939.311 156.5,940.5C 155.513,937.232 155.18,933.898 155.5,930.5 Z"/></g>
<g><path style="opacity:1" fill="#415cf0" d="M 49.5,930.5 C 52.0692,931.396 54.0692,933.062 55.5,935.5C 54.132,936.594 52.9653,936.26 52,934.5C 51,942.5 50,942.5 49,934.5C 48.0347,936.26 46.868,936.594 45.5,935.5C 46.8569,933.814 48.1902,932.148 49.5,930.5 Z"/></g>
<g><path style="opacity:1" fill="#214fef" d="M 157.5,931.5 C 158.5,931.5 159.5,931.5 160.5,931.5C 160.5,932.833 160.5,934.167 160.5,935.5C 159.5,935.5 158.5,935.5 157.5,935.5C 157.5,934.167 157.5,932.833 157.5,931.5 Z"/></g>
<g><path style="opacity:1" fill="#d4dafb" d="M 97.5,931.5 C 98.2389,931.369 98.9056,931.536 99.5,932C 98.7511,933.734 98.2511,935.567 98,937.5C 92.013,938.731 92.1797,939.565 98.5,940C 99.9255,941.714 99.5922,943.047 97.5,944C 95.5,944.667 93.5,944.667 91.5,944C 90.9781,943.439 90.6448,942.772 90.5,942C 91.1852,939.205 91.6852,936.372 92,933.5C 93.9483,932.891 95.7816,932.224 97.5,931.5 Z"/></g>
<g><path style="opacity:1" fill="#d1d6fa" d="M 120.5,929.5 C 122.414,932.684 123.08,936.351 122.5,940.5C 116.326,941.827 114.159,939.494 116,933.5C 117.356,932.62 118.856,932.286 120.5,932.5C 120.5,931.5 120.5,930.5 120.5,929.5 Z"/></g>
<g><path style="opacity:1" fill="#d3d9fb" d="M 143.5,932.5 C 150.004,932.138 151.671,934.638 148.5,940C 146.559,940.743 144.726,940.576 143,939.5C 142.444,937.115 142.61,934.782 143.5,932.5 Z"/></g>
<g><path style="opacity:1" fill="#c2d3fa" d="M 100.5,932.5 C 102.288,932.215 103.955,932.548 105.5,933.5C 103.205,935.2 101.872,937.534 101.5,940.5C 100.52,937.914 100.187,935.247 100.5,932.5 Z"/></g>
<g><path style="opacity:1" fill="#ccdbf9" d="M 169.5,934.5 C 168.5,934.5 167.5,934.5 166.5,934.5C 166.799,936.604 166.466,938.604 165.5,940.5C 164.52,937.914 164.187,935.247 164.5,932.5C 166.781,932.077 168.448,932.744 169.5,934.5 Z"/></g>
<g><path style="opacity:1" fill="#364cef" d="M 94.5,933.5 C 96.6246,934.368 96.7913,935.368 95,936.5C 93.3167,935.824 93.1501,934.824 94.5,933.5 Z"/></g>
<g><path style="opacity:1" fill="#768ff6" d="M 107.5,933.5 C 108.718,934.161 110.051,934.828 111.5,935.5C 110.311,936.429 108.978,936.762 107.5,936.5C 106.375,935.348 106.375,934.348 107.5,933.5 Z"/></g>
<g><path style="opacity:1" fill="#2d4bee" d="M 117.5,934.5 C 118.5,934.5 119.5,934.5 120.5,934.5C 120.884,936.665 120.217,938.332 118.5,939.5C 117.548,937.955 117.215,936.288 117.5,934.5 Z"/></g>
<g><path style="opacity:1" fill="#ceddfa" d="M 137.5,930.5 C 139.078,931.066 140.412,932.066 141.5,933.5C 138.906,935.761 138.906,937.928 141.5,940C 140.207,940.49 138.873,940.657 137.5,940.5C 137.163,936.989 137.163,933.656 137.5,930.5 Z"/></g>
<g><path style="opacity:1" fill="#234aef" d="M 144.5,934.5 C 148.789,934.744 149.456,936.411 146.5,939.5C 144.783,938.332 144.116,936.665 144.5,934.5 Z"/></g>
<g><path style="opacity:1" fill="#858af5" d="M 131.5,936.5 C 131.5,937.167 131.5,937.833 131.5,938.5C 129.883,939.038 128.216,939.371 126.5,939.5C 126.5,937.833 126.5,936.167 126.5,934.5C 128.322,934.831 129.989,935.498 131.5,936.5 Z"/></g>
<g><path style="opacity:1" fill="#d7defb" d="M 169.5,934.5 C 175.454,931.122 177.788,932.789 176.5,939.5C 171.155,941.902 168.821,940.235 169.5,934.5 Z"/></g>
<g><path style="opacity:1" fill="#334ff0" d="M 171.5,934.5 C 172.833,934.5 174.167,934.5 175.5,934.5C 175.884,936.665 175.217,938.332 173.5,939.5C 171.783,938.332 171.116,936.665 171.5,934.5 Z"/></g>
<g><path style="opacity:1" fill="#d9defb" d="M 131.5,936.5 C 129.989,935.498 128.322,934.831 126.5,934.5C 126.5,936.167 126.5,937.833 126.5,939.5C 128.216,939.371 129.883,939.038 131.5,938.5C 129.989,940.441 127.989,940.941 125.5,940C 123.495,934.345 125.328,932.179 131,933.5C 131.483,934.448 131.649,935.448 131.5,936.5 Z"/></g>
<g><path style="opacity:1" fill="#d5ddfb" d="M 107.5,936.5 C 108.978,936.762 110.311,936.429 111.5,935.5C 110.051,934.828 108.718,934.161 107.5,933.5C 109.223,932.193 111.057,932.193 113,933.5C 113.497,935.81 113.663,938.143 113.5,940.5C 111.167,940.5 108.833,940.5 106.5,940.5C 106.232,938.901 106.566,937.568 107.5,936.5 Z"/></g>
<g><path style="opacity:1" fill="#1f47ef" d="M 108.5,937.5 C 111.797,937.329 112.131,937.995 109.5,939.5C 108.702,939.043 108.369,938.376 108.5,937.5 Z"/></g>
<g><path style="opacity:1" fill="#d4ddfa" d="M 82.5,932.5 C 87.9933,931.178 90.4933,933.178 90,938.5C 88.5557,940.155 86.7224,940.822 84.5,940.5C 84.762,941.978 84.4287,943.311 83.5,944.5C 82.5091,940.555 82.1758,936.555 82.5,932.5 Z"/></g>
<g><path style="opacity:1" fill="#354ef0" d="M 84.5,934.5 C 88.1612,934.35 89.1612,935.85 87.5,939C 86.5509,939.617 85.7175,939.451 85,938.5C 84.51,937.207 84.3433,935.873 84.5,934.5 Z"/></g>
<g><path style="opacity:1" fill="#c0cefa" d="M 178.5,938.5 C 179.675,938.281 180.675,938.614 181.5,939.5C 179.948,940.798 178.948,940.465 178.5,938.5 Z"/></g>
<g><path style="opacity:1" fill="#3656ef" d="M 93.5,940.5 C 94.9778,940.238 96.3112,940.571 97.5,941.5C 96.0813,943.915 94.4146,944.081 92.5,942C 93.056,941.617 93.3893,941.117 93.5,940.5 Z"/></g>
</svg>
